<?xml version="1.0" encoding="UTF-8" standalone="no"?>
<svg
   xmlns:dc="http://purl.org/dc/elements/1.1/"
   xmlns:cc="http://creativecommons.org/ns#"
   xmlns:rdf="http://www.w3.org/1999/02/22-rdf-syntax-ns#"
   xmlns:svg="http://www.w3.org/2000/svg"
   xmlns="http://www.w3.org/2000/svg"
   xmlns:sodipodi="http://sodipodi.sourceforge.net/DTD/sodipodi-0.dtd"
   xmlns:inkscape="http://www.inkscape.org/namespaces/inkscape"
   width="60mm"
   height="60mm"
   viewBox="0 0 60 60"
   version="1.1"
   id="svg8"
   inkscape:version="1.0.2 (1.0.2+r75+1)"
   sodipodi:docname="Angriffsszenarien-Spionage.svg">
  <defs
     id="defs2">
    <inkscape:perspective
       sodipodi:type="inkscape:persp3d"
       inkscape:vp_x="3.7417734 : -99.458054 : 1"
       inkscape:vp_y="0 : 999.99998 : 0"
       inkscape:vp_z="210.00002 : -88.500005 : 1"
       inkscape:persp3d-origin="105.00001 : -138 : 1"
       id="perspective2025" />
  </defs>
  <sodipodi:namedview
     id="base"
     pagecolor="#ffffff"
     bordercolor="#666666"
     borderopacity="1.0"
     inkscape:pageopacity="0.0"
     inkscape:pageshadow="2"
     inkscape:zoom="0.7"
     inkscape:cx="402.18493"
     inkscape:cy="346.50286"
     inkscape:document-units="mm"
     inkscape:current-layer="layer1"
     inkscape:document-rotation="0"
     showgrid="true"
     inkscape:window-width="1920"
     inkscape:window-height="1391"
     inkscape:window-x="4160"
     inkscape:window-y="25"
     inkscape:window-maximized="0"
     inkscape:snap-object-midpoints="false"
     inkscape:snap-bbox="true"
     inkscape:snap-bbox-midpoints="false"
     inkscape:snap-center="false"
     inkscape:snap-global="true"
     inkscape:object-paths="true"
     inkscape:bbox-nodes="true">
    <inkscape:grid
       type="axonomgrid"
       id="grid2085"
       originx="0"
       originy="297.00001"
       enabled="false" />
  </sodipodi:namedview>
  <metadata
     id="metadata5">
    <rdf:RDF>
      <cc:Work
         rdf:about="">
        <dc:format>image/svg+xml</dc:format>
        <dc:type
           rdf:resource="http://purl.org/dc/dcmitype/StillImage" />
        <dc:title></dc:title>
      </cc:Work>
    </rdf:RDF>
  </metadata>
  <g
     inkscape:label="Ebene 1"
     inkscape:groupmode="layer"
     id="layer1">
    <g
       transform="matrix(0.31813395,0.02562063,-0.03567901,0.44302983,181.40029,-54.047198)"
       id="g1239-8-2-95-9-1-5-3" />
    <g
       transform="translate(-209.86606)"
       id="g1361">
      <ellipse
         style="fill:#000000;fill-opacity:1;stroke:#000000;stroke-width:0.91597;stroke-linecap:round;stroke-linejoin:round;stroke-miterlimit:4;stroke-dasharray:none;stroke-dashoffset:0;stroke-opacity:1"
         id="path882-2-8-1-9-8-8-2"
         cx="239.86052"
         cy="52.816395"
         rx="13.073703"
         ry="4.3317785" />
      <path
         style="fill:#000000;fill-opacity:1;stroke:#000000;stroke-width:0.91597;stroke-linecap:round;stroke-linejoin:miter;stroke-miterlimit:4;stroke-dasharray:none;stroke-opacity:1"
         d="m 247.62059,52.159431 -5.06301,-8.815012 h -5.34145 l -5.11569,8.815012"
         id="path819-1-0-3-0-1-6-5"
         inkscape:connector-curvature="0"
         sodipodi:nodetypes="cccc" />
      <path
         style="fill:#000000;fill-opacity:1;stroke:#000000;stroke-width:0.91597;stroke-linecap:round;stroke-linejoin:miter;stroke-miterlimit:4;stroke-dasharray:none;stroke-opacity:1"
         d="m 214.52259,10.983774 h 50.67584 v 32.315034 h -50.67584 z"
         id="path815-5-8-8-5-3-8-0"
         inkscape:connector-curvature="0"
         sodipodi:nodetypes="ccccc" />
      <path
         style="fill:#eeeeec;fill-opacity:1;stroke:#000000;stroke-width:0.91597;stroke-linecap:round;stroke-linejoin:miter;stroke-miterlimit:4;stroke-dasharray:none;stroke-opacity:1"
         d="m 217.06145,13.432118 h 45.59813 v 27.418344 h -45.59813 z"
         id="path815-7-6-1-0-6-3-9-6"
         inkscape:connector-curvature="0"
         sodipodi:nodetypes="ccccc" />
      <path
         id="path14262-3-8"
         style="fill:#000000;fill-opacity:0.992157;fill-rule:evenodd;stroke:#000000;stroke-width:0.755906;stroke-linecap:round;stroke-linejoin:round;stroke-miterlimit:4;stroke-dasharray:none;stroke-dashoffset:0;stroke-opacity:0.992157;paint-order:markers fill stroke"
         d="m 906.55859,72.695312 c -30.04758,10e-7 -50.77723,21.252977 -54.40429,29.753908 3.62706,8.50093 24.35671,29.75195 54.40429,29.75195 30.04755,0 50.77919,-21.25102 54.40625,-29.75195 0,0 -24.3587,-29.753908 -54.40625,-29.753908 z m -0.22265,8.501954 a 25.502782,21.252318 0 0 1 0.22265,0 25.502782,21.252318 0 0 1 25.50391,21.251954 25.502782,21.252318 0 0 1 -25.50391,21.25195 25.502782,21.252318 0 0 1 -25.50195,-21.25195 25.502782,21.252318 0 0 1 25.2793,-21.251954 z m 0.22265,5.951172 a 15.301669,15.301669 0 0 0 -15.30078,15.300782 15.301669,15.301669 0 0 0 15.30078,15.30078 15.301669,15.301669 0 0 0 15.30274,-15.30078 15.301669,15.301669 0 0 0 -0.95313,-5.279298 l -13.04297,4.412108 2.77344,-13.865233 a 15.301669,15.301669 0 0 0 -4.08008,-0.568359 z"
         transform="scale(0.26458333)" />
    </g>
  </g>
</svg>
