<?xml version="1.0" encoding="UTF-8" standalone="no"?>
<svg
   xmlns:dc="http://purl.org/dc/elements/1.1/"
   xmlns:cc="http://creativecommons.org/ns#"
   xmlns:rdf="http://www.w3.org/1999/02/22-rdf-syntax-ns#"
   xmlns:svg="http://www.w3.org/2000/svg"
   xmlns="http://www.w3.org/2000/svg"
   xmlns:sodipodi="http://sodipodi.sourceforge.net/DTD/sodipodi-0.dtd"
   xmlns:inkscape="http://www.inkscape.org/namespaces/inkscape"
   width="60mm"
   height="60mm"
   viewBox="0 0 60 60"
   version="1.1"
   id="svg8"
   inkscape:version="1.0.2 (1.0.2+r75+1)"
   sodipodi:docname="Angriffsszenarien-Passwörter.svg">
  <defs
     id="defs2">
    <inkscape:perspective
       sodipodi:type="inkscape:persp3d"
       inkscape:vp_x="3.7417734 : -99.458054 : 1"
       inkscape:vp_y="0 : 999.99998 : 0"
       inkscape:vp_z="210.00002 : -88.500005 : 1"
       inkscape:persp3d-origin="105.00001 : -138 : 1"
       id="perspective2025" />
  </defs>
  <sodipodi:namedview
     id="base"
     pagecolor="#ffffff"
     bordercolor="#666666"
     borderopacity="1.0"
     inkscape:pageopacity="0.0"
     inkscape:pageshadow="2"
     inkscape:zoom="0.7"
     inkscape:cx="629.92543"
     inkscape:cy="541.14319"
     inkscape:document-units="mm"
     inkscape:current-layer="layer1"
     inkscape:document-rotation="0"
     showgrid="true"
     inkscape:window-width="1920"
     inkscape:window-height="1391"
     inkscape:window-x="4160"
     inkscape:window-y="25"
     inkscape:window-maximized="0"
     inkscape:snap-object-midpoints="false"
     inkscape:snap-bbox="true"
     inkscape:snap-bbox-midpoints="false"
     inkscape:snap-center="false"
     inkscape:snap-global="true"
     inkscape:object-paths="true"
     inkscape:bbox-nodes="true">
    <inkscape:grid
       type="axonomgrid"
       id="grid2085"
       originx="0"
       originy="297.00001"
       enabled="false" />
  </sodipodi:namedview>
  <metadata
     id="metadata5">
    <rdf:RDF>
      <cc:Work
         rdf:about="">
        <dc:format>image/svg+xml</dc:format>
        <dc:type
           rdf:resource="http://purl.org/dc/dcmitype/StillImage" />
        <dc:title></dc:title>
      </cc:Work>
    </rdf:RDF>
  </metadata>
  <g
     inkscape:label="Ebene 1"
     inkscape:groupmode="layer"
     id="layer1">
    <g
       transform="translate(1.1339286)"
       id="g1042">
      <rect
         style="fill:#eeeeec;stroke:#000000;stroke-width:1.53411;stroke-linejoin:round;stroke-miterlimit:4;stroke-dasharray:none"
         id="rect1859"
         width="51.954468"
         height="14.547721"
         x="3.4382479"
         y="42.291386"
         ry="2.4160757" />
      <g
         style="fill:#000000"
         id="g1941"
         transform="matrix(0.51137098,0,0,0.51137098,-2.9444009,-95.49699)">
        <path
           d="m 23.109331,273.90786 a 2.4814999,2.4814999 0 0 0 -0.05943,5.2e-4 2.4814999,2.4814999 0 0 0 -1.191141,0.33228 2.4814999,2.4814999 0 0 0 -0.908474,3.39049 l 2.055691,3.56051 h -4.112411 a 2.4814999,2.4814999 0 0 0 -2.480468,2.48253 2.4814999,2.4814999 0 0 0 2.480468,2.48047 h 4.113443 l -2.056723,3.56257 a 2.4814999,2.4814999 0 0 0 0.908474,3.38843 2.4814999,2.4814999 0 0 0 3.39049,-0.90796 l 2.055688,-3.5605 2.055688,3.5605 a 2.4814999,2.4814999 0 0 0 3.390492,0.90796 2.4814999,2.4814999 0 0 0 0.907955,-3.38843 l -2.056722,-3.56257 h 4.113442 a 2.4814999,2.4814999 0 0 0 2.480469,-2.48047 2.4814999,2.4814999 0 0 0 -2.480469,-2.48253 h -4.112408 l 2.055688,-3.56051 a 2.4814999,2.4814999 0 0 0 -0.907955,-3.39049 2.4814999,2.4814999 0 0 0 -1.265557,-0.33228 2.4814999,2.4814999 0 0 0 -2.124935,1.24023 l -2.055688,3.56103 -2.055688,-3.56103 a 2.4814999,2.4814999 0 0 0 -2.139921,-1.24075 z"
           style="color:#000000;font-style:normal;font-variant:normal;font-weight:normal;font-stretch:normal;font-size:medium;line-height:normal;font-family:sans-serif;font-variant-ligatures:normal;font-variant-position:normal;font-variant-caps:normal;font-variant-numeric:normal;font-variant-alternates:normal;font-variant-east-asian:normal;font-feature-settings:normal;font-variation-settings:normal;text-indent:0;text-align:start;text-decoration:none;text-decoration-line:none;text-decoration-style:solid;text-decoration-color:#000000;letter-spacing:normal;word-spacing:normal;text-transform:none;writing-mode:lr-tb;direction:ltr;text-orientation:mixed;dominant-baseline:auto;baseline-shift:baseline;text-anchor:start;white-space:normal;shape-padding:0;shape-margin:0;inline-size:0;clip-rule:nonzero;display:inline;overflow:visible;visibility:visible;opacity:1;isolation:auto;mix-blend-mode:normal;color-interpolation:sRGB;color-interpolation-filters:linearRGB;solid-color:#000000;solid-opacity:1;vector-effect:none;fill:#000000;fill-opacity:1;fill-rule:nonzero;stroke:none;stroke-width:4.963;stroke-linecap:round;stroke-linejoin:miter;stroke-miterlimit:4;stroke-dasharray:none;stroke-dashoffset:0;stroke-opacity:1;color-rendering:auto;image-rendering:auto;shape-rendering:auto;text-rendering:auto;enable-background:accumulate;stop-color:#000000;stop-opacity:1"
           id="path1899" />
        <path
           id="path1899-7"
           style="color:#000000;font-style:normal;font-variant:normal;font-weight:normal;font-stretch:normal;font-size:medium;line-height:normal;font-family:sans-serif;font-variant-ligatures:normal;font-variant-position:normal;font-variant-caps:normal;font-variant-numeric:normal;font-variant-alternates:normal;font-variant-east-asian:normal;font-feature-settings:normal;font-variation-settings:normal;text-indent:0;text-align:start;text-decoration:none;text-decoration-line:none;text-decoration-style:solid;text-decoration-color:#000000;letter-spacing:normal;word-spacing:normal;text-transform:none;writing-mode:lr-tb;direction:ltr;text-orientation:mixed;dominant-baseline:auto;baseline-shift:baseline;text-anchor:start;white-space:normal;shape-padding:0;shape-margin:0;inline-size:0;clip-rule:nonzero;display:inline;overflow:visible;visibility:visible;opacity:1;isolation:auto;mix-blend-mode:normal;color-interpolation:sRGB;color-interpolation-filters:linearRGB;solid-color:#000000;solid-opacity:1;vector-effect:none;fill:#000000;fill-opacity:1;fill-rule:nonzero;stroke:none;stroke-width:4.963;stroke-linecap:round;stroke-linejoin:miter;stroke-miterlimit:4;stroke-dasharray:none;stroke-dashoffset:0;stroke-opacity:1;color-rendering:auto;image-rendering:auto;shape-rendering:auto;text-rendering:auto;enable-background:accumulate;stop-color:#000000;stop-opacity:1"
           d="m 47.093298,273.90786 a 2.4814999,2.4814999 0 0 0 -0.05943,5.2e-4 2.4814999,2.4814999 0 0 0 -1.191141,0.33228 2.4814999,2.4814999 0 0 0 -0.908474,3.39049 l 2.055691,3.56051 h -4.112411 a 2.4814999,2.4814999 0 0 0 -2.480468,2.48253 2.4814999,2.4814999 0 0 0 2.480468,2.48047 h 4.113443 l -2.056723,3.56257 a 2.4814999,2.4814999 0 0 0 0.908474,3.38843 2.4814999,2.4814999 0 0 0 3.39049,-0.90796 l 2.055688,-3.5605 2.055688,3.5605 a 2.4814999,2.4814999 0 0 0 3.390492,0.90796 2.4814999,2.4814999 0 0 0 0.907955,-3.38843 l -2.056722,-3.56257 h 4.113442 a 2.4814999,2.4814999 0 0 0 2.480469,-2.48047 2.4814999,2.4814999 0 0 0 -2.480469,-2.48253 h -4.112408 l 2.055688,-3.56051 a 2.4814999,2.4814999 0 0 0 -0.907955,-3.39049 2.4814999,2.4814999 0 0 0 -1.265557,-0.33228 2.4814999,2.4814999 0 0 0 -2.124935,1.24023 l -2.055688,3.56103 -2.055688,-3.56103 a 2.4814999,2.4814999 0 0 0 -2.139921,-1.24075 z" />
        <path
           id="path1899-0"
           style="color:#000000;font-style:normal;font-variant:normal;font-weight:normal;font-stretch:normal;font-size:medium;line-height:normal;font-family:sans-serif;font-variant-ligatures:normal;font-variant-position:normal;font-variant-caps:normal;font-variant-numeric:normal;font-variant-alternates:normal;font-variant-east-asian:normal;font-feature-settings:normal;font-variation-settings:normal;text-indent:0;text-align:start;text-decoration:none;text-decoration-line:none;text-decoration-style:solid;text-decoration-color:#000000;letter-spacing:normal;word-spacing:normal;text-transform:none;writing-mode:lr-tb;direction:ltr;text-orientation:mixed;dominant-baseline:auto;baseline-shift:baseline;text-anchor:start;white-space:normal;shape-padding:0;shape-margin:0;inline-size:0;clip-rule:nonzero;display:inline;overflow:visible;visibility:visible;opacity:1;isolation:auto;mix-blend-mode:normal;color-interpolation:sRGB;color-interpolation-filters:linearRGB;solid-color:#000000;solid-opacity:1;vector-effect:none;fill:#000000;fill-opacity:1;fill-rule:nonzero;stroke:none;stroke-width:4.963;stroke-linecap:round;stroke-linejoin:miter;stroke-miterlimit:4;stroke-dasharray:none;stroke-dashoffset:0;stroke-opacity:1;color-rendering:auto;image-rendering:auto;shape-rendering:auto;text-rendering:auto;enable-background:accumulate;stop-color:#000000;stop-opacity:1"
           d="m 71.077272,273.90786 a 2.4814999,2.4814999 0 0 0 -0.05943,5.2e-4 2.4814999,2.4814999 0 0 0 -1.191141,0.33228 2.4814999,2.4814999 0 0 0 -0.908474,3.39049 l 2.055691,3.56051 h -4.112411 a 2.4814999,2.4814999 0 0 0 -2.480468,2.48253 2.4814999,2.4814999 0 0 0 2.480468,2.48047 h 4.113443 l -2.056723,3.56257 a 2.4814999,2.4814999 0 0 0 0.908474,3.38843 2.4814999,2.4814999 0 0 0 3.39049,-0.90796 l 2.055688,-3.5605 2.055688,3.5605 a 2.4814999,2.4814999 0 0 0 3.390492,0.90796 2.4814999,2.4814999 0 0 0 0.907955,-3.38843 l -2.056722,-3.56257 h 4.113442 a 2.4814999,2.4814999 0 0 0 2.480469,-2.48047 2.4814999,2.4814999 0 0 0 -2.480469,-2.48253 h -4.112408 l 2.055688,-3.56051 a 2.4814999,2.4814999 0 0 0 -0.907955,-3.39049 2.4814999,2.4814999 0 0 0 -1.265557,-0.33228 2.4814999,2.4814999 0 0 0 -2.124935,1.24023 l -2.055688,3.56103 -2.055688,-3.56103 a 2.4814999,2.4814999 0 0 0 -2.139921,-1.24075 z" />
        <path
           id="path1899-4"
           style="color:#000000;font-style:normal;font-variant:normal;font-weight:normal;font-stretch:normal;font-size:medium;line-height:normal;font-family:sans-serif;font-variant-ligatures:normal;font-variant-position:normal;font-variant-caps:normal;font-variant-numeric:normal;font-variant-alternates:normal;font-variant-east-asian:normal;font-feature-settings:normal;font-variation-settings:normal;text-indent:0;text-align:start;text-decoration:none;text-decoration-line:none;text-decoration-style:solid;text-decoration-color:#000000;letter-spacing:normal;word-spacing:normal;text-transform:none;writing-mode:lr-tb;direction:ltr;text-orientation:mixed;dominant-baseline:auto;baseline-shift:baseline;text-anchor:start;white-space:normal;shape-padding:0;shape-margin:0;inline-size:0;clip-rule:nonzero;display:inline;overflow:visible;visibility:visible;opacity:1;isolation:auto;mix-blend-mode:normal;color-interpolation:sRGB;color-interpolation-filters:linearRGB;solid-color:#000000;solid-opacity:1;vector-effect:none;fill:#000000;fill-opacity:1;fill-rule:nonzero;stroke:none;stroke-width:4.963;stroke-linecap:round;stroke-linejoin:miter;stroke-miterlimit:4;stroke-dasharray:none;stroke-dashoffset:0;stroke-opacity:1;color-rendering:auto;image-rendering:auto;shape-rendering:auto;text-rendering:auto;enable-background:accumulate;stop-color:#000000;stop-opacity:1"
           d="m 95.061203,273.90786 a 2.4814999,2.4814999 0 0 0 -0.05943,5.2e-4 2.4814999,2.4814999 0 0 0 -1.191141,0.33228 2.4814999,2.4814999 0 0 0 -0.908475,3.39049 l 2.055692,3.56051 h -4.112411 a 2.4814999,2.4814999 0 0 0 -2.480468,2.48253 2.4814999,2.4814999 0 0 0 2.480468,2.48047 h 4.113443 l -2.056723,3.56257 a 2.4814999,2.4814999 0 0 0 0.908475,3.38843 2.4814999,2.4814999 0 0 0 3.39049,-0.90796 l 2.055687,-3.5605 2.05569,3.5605 a 2.4814999,2.4814999 0 0 0 3.39051,0.90796 2.4814999,2.4814999 0 0 0 0.90796,-3.38843 l -2.05673,-3.56257 h 4.11347 a 2.4814999,2.4814999 0 0 0 2.48047,-2.48047 2.4814999,2.4814999 0 0 0 -2.48047,-2.48253 h -4.11244 l 2.0557,-3.56051 a 2.4814999,2.4814999 0 0 0 -0.90796,-3.39049 2.4814999,2.4814999 0 0 0 -1.26556,-0.33228 2.4814999,2.4814999 0 0 0 -2.12495,1.24023 l -2.05569,3.56103 -2.055687,-3.56103 a 2.4814999,2.4814999 0 0 0 -2.13992,-1.24075 z" />
      </g>
      <path
         d="m 29.415482,8.8968973 c -3.964606,0 -9.884555,3.2139357 -9.884555,7.1785337 v 4.779943 h 3.307038 v -4.701166 c 0,-2.372956 4.088498,-3.755452 6.461449,-3.755452 2.372955,0 6.32509,1.386418 6.461452,3.755452 v 4.701166 h 3.539172 v -4.779943 c 0,-3.964598 -5.919955,-7.1785337 -9.884556,-7.1785337 z"
         style="fill:#000000;stroke:none;stroke-width:2.35927;stroke-linejoin:round"
         id="path870-7-7-1"
         sodipodi:nodetypes="ssccsssccss" />
      <path
         sodipodi:nodetypes="csssscc"
         d="M 17.836248,20.493349 V 33.3494 c 0,1.926692 1.550895,3.477849 3.477597,3.477849 h 16.202271 c 1.926704,0 3.518387,-1.551587 3.477842,-3.477849 V 20.493349 Z"
         style="fill:#000000;fill-opacity:1;stroke:none;stroke-width:2.35927;stroke-linejoin:round"
         id="rect868-1" />
      <path
         d="m 29.415604,25.270935 c -0.931652,-6.7e-5 -1.686922,0.755197 -1.686862,1.686854 6.2e-5,0.657209 0.381846,1.254536 0.978273,1.530585 l -1.004362,4.325651 h 3.425659 l -1.005824,-4.32492 c 0.597238,-0.275731 0.979696,-0.873504 0.979737,-1.531316 5.9e-5,-0.931559 -0.755063,-1.686788 -1.686621,-1.686854 z"
         style="fill:#eeeeec;fill-opacity:1;stroke:none;stroke-width:2.35927;stroke-linejoin:round"
         id="path958-7"
         sodipodi:nodetypes="ssccccss" />
    </g>
    <g
       transform="matrix(0.31813395,0.02562063,-0.03567901,0.44302983,181.40029,-54.047198)"
       id="g1239-8-2-95-9-1-5-3" />
  </g>
</svg>
