<?xml version="1.0" encoding="UTF-8" standalone="no"?>
<svg
   xmlns:dc="http://purl.org/dc/elements/1.1/"
   xmlns:cc="http://creativecommons.org/ns#"
   xmlns:rdf="http://www.w3.org/1999/02/22-rdf-syntax-ns#"
   xmlns:svg="http://www.w3.org/2000/svg"
   xmlns="http://www.w3.org/2000/svg"
   xmlns:sodipodi="http://sodipodi.sourceforge.net/DTD/sodipodi-0.dtd"
   xmlns:inkscape="http://www.inkscape.org/namespaces/inkscape"
   width="60mm"
   height="60mm"
   viewBox="0 0 60 60"
   version="1.1"
   id="svg8"
   inkscape:version="1.0.2 (1.0.2+r75+1)"
   sodipodi:docname="Angriffsszenarien-BotNetz.svg">
  <defs
     id="defs2">
    <inkscape:perspective
       sodipodi:type="inkscape:persp3d"
       inkscape:vp_x="3.7417734 : -99.458054 : 1"
       inkscape:vp_y="0 : 999.99998 : 0"
       inkscape:vp_z="210.00002 : -88.500005 : 1"
       inkscape:persp3d-origin="105.00001 : -138 : 1"
       id="perspective2025" />
  </defs>
  <sodipodi:namedview
     id="base"
     pagecolor="#ffffff"
     bordercolor="#666666"
     borderopacity="1.0"
     inkscape:pageopacity="0.0"
     inkscape:pageshadow="2"
     inkscape:zoom="0.7"
     inkscape:cx="402.18493"
     inkscape:cy="346.50286"
     inkscape:document-units="mm"
     inkscape:current-layer="layer1"
     inkscape:document-rotation="0"
     showgrid="true"
     inkscape:window-width="1920"
     inkscape:window-height="1391"
     inkscape:window-x="4160"
     inkscape:window-y="25"
     inkscape:window-maximized="0"
     inkscape:snap-object-midpoints="false"
     inkscape:snap-bbox="true"
     inkscape:snap-bbox-midpoints="false"
     inkscape:snap-center="false"
     inkscape:snap-global="true"
     inkscape:object-paths="true"
     inkscape:bbox-nodes="true">
    <inkscape:grid
       type="axonomgrid"
       id="grid2085"
       originx="0"
       originy="297.00001"
       enabled="false" />
  </sodipodi:namedview>
  <metadata
     id="metadata5">
    <rdf:RDF>
      <cc:Work
         rdf:about="">
        <dc:format>image/svg+xml</dc:format>
        <dc:type
           rdf:resource="http://purl.org/dc/dcmitype/StillImage" />
        <dc:title></dc:title>
      </cc:Work>
    </rdf:RDF>
  </metadata>
  <g
     inkscape:label="Ebene 1"
     inkscape:groupmode="layer"
     id="layer1">
    <g
       transform="matrix(0.31813395,0.02562063,-0.03567901,0.44302983,181.40029,-54.047198)"
       id="g1239-8-2-95-9-1-5-3" />
    <g
       transform="translate(-139.86607)"
       id="g1452">
      <circle
         r="25.588314"
         cy="30.710363"
         cx="169.71217"
         id="path8303"
         style="fill:#eeeeec;stroke:#000000;stroke-width:2.61498;stroke-linecap:round;stroke-linejoin:round;stroke-miterlimit:4;stroke-dasharray:none;stroke-opacity:1" />
      <path
         id="rect835-8-9-4-9-5-7-8-4-0"
         style="fill:#000000;stroke:none;stroke-width:0.399621;stroke-linejoin:round"
         d="m 184.67193,15.812988 a 1.1101184,1.5459386 4.6043266 0 0 -1.14257,1.454175 1.1101184,1.5459386 4.6043266 0 0 0.58395,1.488798 l -0.26924,3.342948 -2.02003,-0.162781 -0.33745,-3.060795 a 1.1101183,1.5459385 4.6043293 0 1 5.3e-4,-5.29e-4 1.1101183,1.5459385 4.6043293 0 0 0.54054,-1.602486 1.1101183,1.5459385 4.6043293 0 0 -1.26763,-1.198893 1.1101183,1.5459385 4.6043293 0 0 -0.93431,1.824178 1.1101183,1.5459385 4.6043293 0 0 0.85008,1.207678 l 0.30438,2.763139 -1.79421,-0.144694 c -0.0554,-0.0045 -0.11052,-0.0063 -0.16485,-0.0052 -0.81486,0.0165 -1.49633,0.644853 -1.56321,1.475362 l -0.78703,9.773562 c -0.0713,0.885878 0.58432,1.656202 1.47019,1.727544 l 10.13168,0.81597 c 0.88589,0.07134 1.6562,-0.584316 1.72755,-1.470194 l 0.78703,-9.773563 c 0.0713,-0.885876 -0.58431,-1.656199 -1.47019,-1.727543 l -1.79473,-0.144694 0.74311,-2.67839 a 1.1101183,1.5459385 4.6043244 0 1 5.3e-4,0 1.1101183,1.5459385 4.6043244 0 0 1.03198,-1.056266 1.1101183,1.5459385 4.6043244 0 0 -0.63045,-1.950268 1.1101183,1.5459385 4.6043244 0 0 -1.44281,0.980818 1.1101183,1.5459385 4.6043244 0 0 0.2775,1.668632 l -0.8232,2.967778 -2.02004,-0.162781 0.26924,-3.342431 a 1.1101184,1.5459386 4.6043266 0 1 5.3e-4,-5.3e-4 1.1101184,1.5459386 4.6043266 0 0 0.8139,-1.376143 1.1101184,1.5459386 4.6043266 0 0 -0.98237,-1.629875 1.1101184,1.5459386 4.6043266 0 0 -0.0884,-0.0026 z m -4.80384,9.122441 c 0.13726,0.0024 0.27993,0.03471 0.42116,0.100769 l 1.88981,0.883667 c 0.56493,0.264235 0.88544,0.961177 0.71882,1.562178 -0.16662,0.601001 -0.75541,0.87195 -1.32034,0.607716 l -1.8898,-0.883669 c -0.56494,-0.264239 -0.88544,-0.96066 -0.71882,-1.561661 0.12496,-0.45075 0.48739,-0.716053 0.89917,-0.709 z m 8.05119,0.657841 c 0.50581,-0.03643 0.92519,0.30868 0.98495,0.85111 0.0683,0.61992 -0.3597,1.256362 -0.95963,1.426786 l -2.0066,0.569992 c -0.59993,0.170423 -1.13783,-0.1914 -1.20613,-0.811321 -0.0683,-0.619919 0.3597,-1.256361 0.95964,-1.426786 l 2.00659,-0.569991 c 0.075,-0.0213 0.14892,-0.03459 0.22118,-0.03979 z m -8.55969,4.6824 0.74724,1.240234 0.93638,-1.104323 0.74724,1.239716 0.93638,-1.104326 0.74724,1.240234 0.93586,-1.104841 0.74724,1.240234 0.93638,-1.104323 0.74724,1.239715 0.93638,-1.104325 -0.0476,0.586012 -0.047,0.58601 -0.93638,1.104842 -0.74724,-1.240235 -0.93586,1.104326 -0.74724,-1.239718 -0.93638,1.104325 -0.74724,-1.240234 -0.93638,1.104326 -0.74724,-1.239719 -0.93586,1.104326 -0.74724,-1.239715 z" />
      <path
         id="rect835-8-9-1-4-9-1"
         style="fill:#000000;stroke:none;stroke-width:0.399621;stroke-linejoin:round"
         d="m 170.19943,31.25494 a 1.1101181,1.5459384 11.156595 0 0 -1.21802,1.316715 1.1101181,1.5459384 11.156595 0 0 0.41031,1.546159 l -0.32969,1.671214 -0.0238,-0.0047 c -0.10899,-0.02151 -0.21725,-0.03114 -0.32401,-0.03049 -0.74735,0.0046 -1.40965,0.531024 -1.56011,1.293979 l -1.89705,9.620083 c -0.17196,0.871951 0.39154,1.712675 1.26349,1.884641 l 9.972,1.966288 c 0.87195,0.171963 1.71216,-0.391541 1.88413,-1.263489 l 1.89704,-9.619567 c 0.17196,-0.87195 -0.39154,-1.712677 -1.26349,-1.88464 l -9.14621,-1.804025 0.32969,-1.671214 a 1.1101181,1.5459384 11.156595 0 1 5.3e-4,0 1.1101181,1.5459384 11.156595 0 0 0.96532,-1.274342 1.1101181,1.5459384 11.156595 0 0 -0.78962,-1.731677 1.1101181,1.5459384 11.156595 0 0 -0.17053,-0.01497 z m -0.22738,6.867279 2.01228,2.394688 -0.92604,1.390095 -2.0128,-2.394686 z m 7.28741,1.437122 0.32918,1.637628 -2.77089,1.451591 -0.32918,-1.638144 z m -9.27644,3.837492 2.15698,2.155942 4.1429,0.817004 2.81378,-1.175123 -0.40721,2.06344 -2.81378,1.175123 -4.14238,-0.817004 -2.09135,-2.488737 z" />
      <path
         id="rect835-8-9-4-9-71-9-4-1-1"
         style="fill:#000000;stroke:none;stroke-width:0.399621;stroke-linejoin:round"
         d="m 169.93485,9.6345538 a 1.5459384,1.1101181 82.834489 0 0 -0.99891,1.2764082 1.5459384,1.1101181 82.834489 0 0 0.61185,1.576648 l -0.19999,3.073714 -4.8333,0.607198 -0.95446,-2.92747 a 1.5459383,1.1101181 82.834487 0 0 0.20257,-1.679484 1.5459383,1.1101181 82.834487 0 0 -1.12551,-1.009241 1.5459383,1.1101181 82.834487 0 0 -0.36019,0.09405 1.5459383,1.1101181 82.834487 0 0 -0.5426,1.976624 1.5459383,1.1101181 82.834487 0 0 1.07901,1.008724 l 0.86144,2.642733 -1.78594,0.224275 c -0.88179,0.110858 -1.5025,0.909819 -1.39164,1.791622 l 1.22318,9.728606 c 0.11086,0.881803 0.90982,1.502502 1.79162,1.391645 l 10.08466,-1.267622 c 0.88179,-0.110857 1.5025,-0.90982 1.39164,-1.791622 l -1.22318,-9.728605 c -0.10393,-0.82669 -0.81251,-1.423977 -1.62729,-1.404049 -0.0543,0.0013 -0.10922,0.0055 -0.16433,0.0124 l -1.78645,0.224276 0.18086,-2.773474 a 1.5459384,1.1101181 82.834489 0 1 5.3e-4,0 1.5459384,1.1101181 82.834489 0 0 0.7953,-1.244369 1.5459384,1.1101181 82.834489 0 0 -1.01544,-1.7807695 1.5459384,1.1101181 82.834489 0 0 -0.21342,-0.02222 z m 0.47077,8.8278852 a 1.8689651,1.3420794 82.834487 0 1 0.23306,1.85415 1.8689651,1.3420794 82.834487 0 1 -1.03663,1.072286 1.8689651,1.3420794 82.834487 0 1 -1.26969,-0.781864 l 1.03663,-1.072286 z m -6.68745,0.840775 1.27021,0.782381 1.26969,0.781865 a 1.8689651,1.3420794 82.834489 0 1 -1.03663,1.072286 1.8689651,1.3420794 82.834489 0 1 -1.26969,-0.782381 1.8689651,1.3420794 82.834489 0 1 -0.23358,-1.854151 z m 8.46408,4.479313 0.0729,0.583427 0.0734,0.583427 -0.69092,1.271757 -0.98443,-1.061434 -0.69143,1.272274 -0.98444,-1.061434 -0.69143,1.272275 -0.98444,-1.061435 -0.69091,1.271758 -0.98495,-1.061435 -0.69092,1.272273 -0.98443,-1.061433 -0.14676,-1.166854 0.98443,1.061434 0.69143,-1.272274 0.98444,1.061951 0.69143,-1.272274 0.98444,1.061434 0.69091,-1.272274 0.98443,1.061434 0.69144,-1.272273 0.98443,1.06195 z" />
      <path
         id="rect835-8-2-5-1-2-0-5"
         style="fill:#000000;stroke:none;stroke-width:0.399621;stroke-linejoin:round"
         d="m 154.55852,24.728723 a 1.5459384,1.1101181 82.139823 0 0 -0.12402,0.0072 1.5459384,1.1101181 82.139823 0 0 -0.88832,1.683618 1.5459384,1.1101181 82.139823 0 0 0.8909,1.328085 l 0.45889,3.321243 -4.62969,0.639239 c -0.8804,0.121541 -1.49097,0.92828 -1.36943,1.808673 l 1.341,9.713103 c 0.12155,0.880395 0.92776,1.491485 1.80816,1.369943 l 10.06864,-1.390097 c 0.88039,-0.121541 1.49148,-0.92828 1.36994,-1.808675 l -1.341,-9.713103 c -0.12154,-0.880385 -0.92829,-1.491483 -1.80868,-1.369941 l -4.62917,0.639238 -0.45889,-3.321761 a 1.5459384,1.1101181 82.139823 0 0 0.49868,-1.519805 1.5459384,1.1101181 82.139823 0 0 -1.18701,-1.386995 z m 5.42758,8.753988 c 0.32267,0.01701 0.63821,0.2945 0.78858,0.737423 0.20048,0.590568 0.0292,1.245423 -0.38396,1.468128 l -2.32647,1.25367 c -0.41321,0.222702 -0.90746,-0.07348 -1.10794,-0.664044 -0.20049,-0.590566 -0.0292,-1.244907 0.38396,-1.467609 l 2.32647,-1.254189 c 0.1033,-0.05568 0.2118,-0.07905 0.31936,-0.07338 z m -8.36745,1.146699 c 0.0547,-0.0029 0.1112,0.0016 0.16846,0.01447 l 2.57918,0.57671 c 0.45809,0.102418 0.80036,0.686165 0.76739,1.308963 -0.033,0.6228 -0.42816,1.041897 -0.88625,0.939477 l -2.57917,-0.576707 c -0.45809,-0.102418 -0.80037,-0.686165 -0.7674,-1.308965 0.0289,-0.544949 0.33478,-0.933855 0.71779,-0.953948 z m 8.19227,4.352705 0.99735,1.049549 0.0801,0.582393 0.0806,0.582393 -0.99735,-1.049547 -0.67593,1.280541 -0.99735,-1.049546 -0.67542,1.280541 -0.99735,-1.049549 -0.67593,1.280543 -0.99735,-1.049549 -0.67541,1.280541 -0.99736,-1.049546 -0.67593,1.280541 -0.16071,-1.165305 0.67593,-1.280025 0.99735,1.049034 0.67541,-1.280028 0.99736,1.049033 0.67593,-1.280025 0.99735,1.049031 0.67541,-1.280025 0.99736,1.049549 z" />
    </g>
  </g>
</svg>
