<?xml version="1.0" encoding="UTF-8" standalone="no"?>
<svg
   xmlns:dc="http://purl.org/dc/elements/1.1/"
   xmlns:cc="http://creativecommons.org/ns#"
   xmlns:rdf="http://www.w3.org/1999/02/22-rdf-syntax-ns#"
   xmlns:svg="http://www.w3.org/2000/svg"
   xmlns="http://www.w3.org/2000/svg"
   xmlns:sodipodi="http://sodipodi.sourceforge.net/DTD/sodipodi-0.dtd"
   xmlns:inkscape="http://www.inkscape.org/namespaces/inkscape"
   sodipodi:docname="BotNetz4.svg"
   inkscape:version="1.0 (4035a4fb49, 2020-05-01)"
   id="svg4167"
   version="1.1"
   viewBox="0 0 60 60"
   height="60mm"
   width="60mm">
  <defs
     id="defs4161" />
  <sodipodi:namedview
     inkscape:window-maximized="0"
     inkscape:window-y="236"
     inkscape:window-x="1810"
     inkscape:window-height="1228"
     inkscape:window-width="1593"
     showgrid="false"
     inkscape:document-rotation="0"
     inkscape:current-layer="layer1"
     inkscape:document-units="mm"
     inkscape:cy="110.40672"
     inkscape:cx="90.052233"
     inkscape:zoom="1.979899"
     inkscape:pageshadow="2"
     inkscape:pageopacity="0.0"
     borderopacity="1.0"
     bordercolor="#666666"
     pagecolor="#ffffff"
     id="base" />
  <metadata
     id="metadata4164">
    <rdf:RDF>
      <cc:Work
         rdf:about="">
        <dc:format>image/svg+xml</dc:format>
        <dc:type
           rdf:resource="http://purl.org/dc/dcmitype/StillImage" />
        <dc:title></dc:title>
      </cc:Work>
    </rdf:RDF>
  </metadata>
  <g
     id="layer1"
     inkscape:groupmode="layer"
     inkscape:label="Ebene 1">
    <g
       transform="matrix(2.3808926,0,0,2.3808926,-5.6439966,-78.187548)"
       id="g6248">
      <g
         transform="matrix(1.4832563,0.1194527,-0.16634852,2.0655664,-59.473274,-537.42561)"
         id="g3619-4-0">
        <g
           id="g1305-8-4-6-0-8"
           transform="matrix(0.12508023,0,0,0.12508023,66.475436,255.3806)">
          <rect
             style="fill:#000000;stroke:none;stroke-width:1.06102;stroke-linejoin:round"
             id="rect835-8-9-4-9-5-7-8-4"
             width="41.898674"
             height="29.279442"
             x="140.63548"
             y="156.12801"
             ry="3.6093607" />
          <path
             id="path983-3-9-2-2-2-6-8"
             d="m 148.35566,177.92203 2.64583,2.64584 2.64583,-2.64584 2.64584,2.64584 2.64583,-2.64584 2.64583,2.64584 2.64584,-2.64584 2.64583,2.64584 2.64583,-2.64584 2.64584,2.64584 2.64583,-2.64584 v -1.32291 -1.32293 l -2.64583,2.64584 -2.64584,-2.64584 -2.64583,2.64584 -2.64583,-2.64584 -2.64584,2.64584 -2.64583,-2.64584 -2.64583,2.64584 -2.64584,-2.64584 -2.64583,2.64584 -2.64583,-2.64584 z"
             style="fill:#ffffff;stroke:none;stroke-width:0.264583px;stroke-linecap:butt;stroke-linejoin:miter;stroke-opacity:1" />
          <g
             transform="translate(133.52009,-14.198505)"
             id="g1116-8-9-74-4-8-2">
            <g
               transform="translate(10.583333)"
               id="g1072-64-8-6-4-3-5">
              <g
                 transform="rotate(15,24.045314,163.72724)"
                 id="g1107-7-7-73-5-6-8">
                <rect
                   style="fill:#000000;stroke:none;stroke-width:1.14408;stroke-linejoin:round"
                   id="rect837-2-4-7-4-4-1-9-2-4"
                   width="2.5608757"
                   height="10.778635"
                   x="26.784296"
                   y="159.54787" />
                <circle
                   style="fill:#000000;stroke:none;stroke-width:1.14408;stroke-linejoin:round"
                   id="path839-8-5-8-2-4-3-5-8-6"
                   cx="28.064734"
                   cy="159.54787"
                   r="3.4782071" />
              </g>
            </g>
            <g
               transform="rotate(-15,26.792487,203.92144)"
               id="g1072-7-8-9-33-7-5-4">
              <rect
                 style="fill:#000000;stroke:none;stroke-width:1.14408;stroke-linejoin:round"
                 id="rect837-2-4-7-3-1-6-1-5-4-1"
                 width="2.5608757"
                 height="10.778635"
                 x="26.784296"
                 y="159.54787" />
              <circle
                 style="fill:#000000;stroke:none;stroke-width:1.14408;stroke-linejoin:round"
                 id="path839-8-5-8-3-2-6-5-9-9-6"
                 cx="28.064734"
                 cy="159.54787"
                 r="3.4782071" />
            </g>
          </g>
          <g
             transform="translate(133.52009,-14.198505)"
             id="g1239-8-2-95-9-1-5" />
        </g>
        <rect
           style="fill:#000000;stroke:none;stroke-width:0.143102;stroke-linejoin:round"
           id="rect837-2-0-9-9-2"
           width="0.32031491"
           height="1.3481941"
           x="86.526344"
           y="273.56094" />
        <circle
           style="fill:#000000;stroke:none;stroke-width:0.143102;stroke-linejoin:round"
           id="path839-8-1-4-7-6"
           cx="86.686501"
           cy="273.56094"
           r="0.43505496" />
        <g
           transform="matrix(0.12508023,0,0,0.12508023,74.341606,255.32319)"
           id="g883-9-3-0-3-0-7"
           style="fill:#ffffff">
          <rect
             style="fill:#ffffff;stroke:none;stroke-width:1;stroke-linejoin:round"
             id="rect843-1-6-6-6-84-1"
             width="13.18192"
             height="5.1499252"
             x="123.06342"
             y="135.70428"
             ry="2.5749626"
             transform="rotate(15)" />
          <rect
             ry="2.5749626"
             y="186.793"
             x="54.420341"
             height="5.1499252"
             width="13.18192"
             id="rect843-4-6-9-6-2-4-7"
             style="fill:#ffffff;stroke:none;stroke-width:1;stroke-linejoin:round"
             transform="rotate(-15)" />
        </g>
      </g>
      <g
         id="g2444-2-2"
         transform="matrix(0.18260926,0.03601385,-0.05015251,0.25429966,-26.410372,-122.36345)">
        <rect
           style="fill:#000000;stroke:none;stroke-width:1.06102;stroke-linejoin:round"
           id="rect835-8-9-1-4-9"
           width="41.898674"
           height="29.279442"
           x="-430.39798"
           y="617.08881"
           ry="3.6093605"
           transform="scale(-1,1)" />
        <g
           id="g1441-5-6-0"
           transform="translate(382.85532,446.58417)"
           style="fill:#ffffff">
          <rect
             transform="rotate(30)"
             ry="0"
             y="144.29953"
             x="100.58171"
             height="4.0090432"
             width="8.8198948"
             id="rect1378-5-49-6"
             style="fill:#ffffff;stroke:none;stroke-width:0.77006;stroke-linejoin:round" />
          <rect
             style="fill:#ffffff;stroke:none;stroke-width:0.770059;stroke-linejoin:round"
             id="rect1378-04-2-0-6"
             width="8.8198948"
             height="4.0090432"
             x="54.520741"
             y="170.89284"
             ry="0"
             transform="matrix(-0.8660254,0.5,0.5,0.8660254,0,0)" />
        </g>
        <path
           style="fill:#ffffff;stroke:none;stroke-width:0.264583px;stroke-linecap:butt;stroke-linejoin:miter;stroke-opacity:1"
           d="m 394.89655,634.35187 v 3.96875 l 7.9375,4.58272 h 13.22916 l 7.93751,-3.81893 v -4.73254 l -7.93751,3.81893 h -13.22916 z"
           id="path1489-9-7-9"
           sodipodi:nodetypes="ccccccccc" />
        <g
           transform="translate(366.81628,450.47404)"
           id="g1072-6-8-3-0-4">
          <rect
             style="fill:#000000;stroke:none;stroke-width:1.14408;stroke-linejoin:round"
             id="rect837-2-4-7-6-1-8-4-2"
             width="2.5608757"
             height="10.778635"
             x="26.784296"
             y="159.54787" />
          <circle
             style="fill:#000000;stroke:none;stroke-width:1.14408;stroke-linejoin:round"
             id="path839-8-5-8-6-5-8-7-8"
             cx="28.064734"
             cy="159.54787"
             r="3.4782071" />
        </g>
      </g>
      <g
         inkscape:transform-center-x="-0.015598343"
         inkscape:transform-center-y="-1.4894945"
         transform="matrix(0.18467302,-0.02321671,0.03233133,0.25717363,-21.614651,0.71727622)"
         id="g1305-8-9-3-5-4">
        <rect
           ry="3.6093607"
           y="156.12801"
           x="140.63548"
           height="29.279442"
           width="41.898674"
           id="rect835-8-9-4-9-71-9-4-1"
           style="fill:#000000;stroke:none;stroke-width:1.06102;stroke-linejoin:round" />
        <path
           style="fill:#ffffff;stroke:none;stroke-width:0.264583px;stroke-linecap:butt;stroke-linejoin:miter;stroke-opacity:1"
           d="m 148.35566,177.92203 2.64583,2.64584 2.64583,-2.64584 2.64584,2.64584 2.64583,-2.64584 2.64583,2.64584 2.64584,-2.64584 2.64583,2.64584 2.64583,-2.64584 2.64584,2.64584 2.64583,-2.64584 v -1.32291 -1.32293 l -2.64583,2.64584 -2.64584,-2.64584 -2.64583,2.64584 -2.64583,-2.64584 -2.64584,2.64584 -2.64583,-2.64584 -2.64583,2.64584 -2.64584,-2.64584 -2.64583,2.64584 -2.64583,-2.64584 z"
           id="path983-3-9-2-6-2-4-9" />
        <g
           id="g1116-8-9-3-7-0-4"
           transform="translate(133.52009,-14.198505)">
          <g
             id="g1072-64-8-3-5-8-5"
             transform="translate(10.583333)">
            <g
               id="g1107-7-7-5-9-98-4"
               transform="rotate(15,24.045314,163.72724)">
              <rect
                 y="159.54787"
                 x="26.784296"
                 height="10.778635"
                 width="2.5608757"
                 id="rect837-2-4-7-4-4-60-7-8-1"
                 style="fill:#000000;stroke:none;stroke-width:1.14408;stroke-linejoin:round" />
              <circle
                 r="3.4782071"
                 cy="159.54787"
                 cx="28.064734"
                 id="path839-8-5-8-2-4-9-0-97-1"
                 style="fill:#000000;stroke:none;stroke-width:1.14408;stroke-linejoin:round" />
            </g>
          </g>
          <g
             id="g1072-7-8-9-6-2-1-5"
             transform="rotate(-15,26.792487,203.92144)">
            <rect
               y="159.54787"
               x="26.784296"
               height="10.778635"
               width="2.5608757"
               id="rect837-2-4-7-3-1-6-6-4-7-3"
               style="fill:#000000;stroke:none;stroke-width:1.14408;stroke-linejoin:round" />
            <circle
               r="3.4782071"
               cy="159.54787"
               cx="28.064734"
               id="path839-8-5-8-3-2-6-3-2-4-3"
               style="fill:#000000;stroke:none;stroke-width:1.14408;stroke-linejoin:round" />
          </g>
        </g>
        <g
           id="g1239-8-2-955-2-0-0"
           transform="translate(133.52009,-14.198505)">
          <path
             d="m 111.45187,145.00652 a 4.2049851,4.2049851 0 0 1 -2.10249,3.64162 4.2049851,4.2049851 0 0 1 -4.20499,0 4.2049851,4.2049851 0 0 1 -2.10249,-3.64162 h 4.20499 z"
             style="fill:#ffffff;stroke:none;stroke-width:1.21918;stroke-linejoin:round"
             id="path1220-18-1-1-8-5-2"
             sodipodi:type="arc"
             sodipodi:cx="107.24689"
             sodipodi:cy="145.00652"
             sodipodi:rx="4.2049851"
             sodipodi:ry="4.2049851"
             sodipodi:start="0"
             sodipodi:end="3.1415927"
             sodipodi:arc-type="slice"
             transform="rotate(30)" />
          <path
             d="m 64.180815,172.29848 a 4.2049851,4.2049851 0 0 1 -2.102492,3.64162 4.2049851,4.2049851 0 0 1 -4.204986,0 4.2049851,4.2049851 0 0 1 -2.102492,-3.64162 h 4.204985 z"
             transform="matrix(-0.8660254,0.5,0.5,0.8660254,0,0)"
             sodipodi:arc-type="slice"
             sodipodi:end="3.1415927"
             sodipodi:start="0"
             sodipodi:ry="4.2049851"
             sodipodi:rx="4.2049851"
             sodipodi:cy="172.29848"
             sodipodi:cx="59.97583"
             sodipodi:type="arc"
             id="path1220-1-4-2-30-9-2-0"
             style="fill:#ffffff;stroke:none;stroke-width:1.21918;stroke-linejoin:round" />
        </g>
      </g>
      <g
         inkscape:transform-center-x="3.2436373e-06"
         transform="matrix(0.18437797,-0.02545395,0.03544689,0.25676275,-4.8954208,7.3961652)"
         id="g1007-3-4-1-9-7"
         inkscape:transform-center-y="-1.6094887">
        <rect
           ry="3.6093605"
           y="153.36014"
           x="11.323459"
           height="29.279442"
           width="41.898674"
           id="rect835-8-2-5-1-2-0"
           style="fill:#000000;stroke:none;stroke-width:1.06102;stroke-linejoin:round" />
        <rect
           y="142.5815"
           x="30.992357"
           height="10.778635"
           width="2.5608757"
           id="rect837-2-6-4-7-0-1"
           style="fill:#000000;stroke:none;stroke-width:1.14408;stroke-linejoin:round" />
        <circle
           r="3.4782071"
           cy="142.5815"
           cx="32.272797"
           id="path839-8-0-6-00-0-5"
           style="fill:#000000;stroke:none;stroke-width:1.14408;stroke-linejoin:round" />
        <g
           style="fill:#ffffff"
           id="g883-9-3-3-7-2-9-8"
           transform="translate(-66.423025,-3.2268534)">
          <rect
             transform="rotate(15)"
             ry="2.5749626"
             y="135.70428"
             x="123.06342"
             height="5.1499252"
             width="13.18192"
             id="rect843-1-6-60-5-7-2-5"
             style="fill:#ffffff;stroke:none;stroke-width:1;stroke-linejoin:round" />
          <rect
             transform="rotate(-15)"
             style="fill:#ffffff;stroke:none;stroke-width:1;stroke-linejoin:round"
             id="rect843-4-6-9-2-3-29-8-6"
             width="13.18192"
             height="5.1499252"
             x="54.420341"
             y="186.793"
             ry="2.5749626" />
        </g>
        <path
           style="fill:#ffffff;stroke:none;stroke-width:0.264583px;stroke-linecap:butt;stroke-linejoin:miter;stroke-opacity:1"
           d="m 19.043629,175.15417 2.645833,-2.64583 2.645834,2.64583 2.645833,-2.64583 2.645833,2.64583 2.645834,-2.64583 2.645833,2.64583 2.645833,-2.64583 2.645834,2.64583 2.645833,-2.64583 2.645833,2.64583 v 1.32292 1.32292 l -2.645833,-2.64584 -2.645833,2.64584 -2.645834,-2.64584 -2.645833,2.64584 -2.645833,-2.64584 -2.645834,2.64584 -2.645833,-2.64584 -2.645833,2.64584 -2.645834,-2.64584 -2.645833,2.64584 z"
           id="path983-6-2-4-2-8" />
      </g>
    </g>
  </g>
</svg>
