<?xml version="1.0" encoding="UTF-8" standalone="no"?>
<svg
   xmlns:dc="http://purl.org/dc/elements/1.1/"
   xmlns:cc="http://creativecommons.org/ns#"
   xmlns:rdf="http://www.w3.org/1999/02/22-rdf-syntax-ns#"
   xmlns:svg="http://www.w3.org/2000/svg"
   xmlns="http://www.w3.org/2000/svg"
   xmlns:xlink="http://www.w3.org/1999/xlink"
   xmlns:sodipodi="http://sodipodi.sourceforge.net/DTD/sodipodi-0.dtd"
   xmlns:inkscape="http://www.inkscape.org/namespaces/inkscape"
   height="149"
   width="206"
   version="1.1"
   id="svg76"
   sodipodi:docname="games.svg"
   inkscape:version="1.0.2 (1.0.2+r75+1)">
  <metadata
     id="metadata82">
    <rdf:RDF>
      <cc:Work
         rdf:about="">
        <dc:format>image/svg+xml</dc:format>
        <dc:type
           rdf:resource="http://purl.org/dc/dcmitype/StillImage" />
        <dc:title></dc:title>
      </cc:Work>
    </rdf:RDF>
  </metadata>
  <defs
     id="defs80">
    <filter
       id="imagebot_6"
       color-interpolation-filters="sRGB">
      <feGaussianBlur
         id="imagebot_44"
         stdDeviation="3.42208" />
    </filter>
    <filter
       id="imagebot_6-5"
       color-interpolation-filters="sRGB">
      <feGaussianBlur
         id="imagebot_44-2"
         stdDeviation="3.42208" />
    </filter>
    <filter
       id="filter3502"
       color-interpolation-filters="sRGB">
      <feGaussianBlur
         id="feGaussianBlur3500"
         stdDeviation="3.42208" />
    </filter>
    <filter
       id="filter3506"
       color-interpolation-filters="sRGB">
      <feGaussianBlur
         id="feGaussianBlur3504"
         stdDeviation="3.42208" />
    </filter>
  </defs>
  <sodipodi:namedview
     pagecolor="#ffffff"
     bordercolor="#666666"
     borderopacity="1"
     objecttolerance="10"
     gridtolerance="10"
     guidetolerance="10"
     inkscape:pageopacity="0"
     inkscape:pageshadow="2"
     inkscape:window-width="2560"
     inkscape:window-height="1390"
     id="namedview78"
     showgrid="false"
     inkscape:zoom="3.9804688"
     inkscape:cx="66.99796"
     inkscape:cy="108.21588"
     inkscape:window-x="1600"
     inkscape:window-y="25"
     inkscape:window-maximized="1"
     inkscape:current-layer="svg76" />
  <linearGradient
     id="g"
     gradientTransform="rotate(-90,24,10)"
     gradientUnits="userSpaceOnUse"
     x1="22.9"
     x2="25.1"
     y1="10"
     y2="10">
    <stop
       offset="0"
       stop-color="#fdae23"
       id="stop2" />
    <stop
       offset="1"
       stop-color="#fdca73"
       id="stop4" />
  </linearGradient>
  <linearGradient
     id="h"
     gradientTransform="rotate(-90,26,12)"
     gradientUnits="userSpaceOnUse"
     x1="24.9"
     x2="27.1"
     y1="12"
     y2="12">
    <stop
       offset="0"
       stop-color="#da4453"
       id="stop7" />
    <stop
       offset="1"
       stop-color="#e47681"
       id="stop9" />
  </linearGradient>
  <linearGradient
     id="i"
     gradientTransform="rotate(-90,24,14)"
     gradientUnits="userSpaceOnUse"
     x1="22.9"
     x2="25.1"
     y1="14"
     y2="14">
    <stop
       offset="0"
       stop-color="#27ab5f"
       id="stop12" />
    <stop
       offset="1"
       stop-color="#4bd786"
       id="stop14" />
  </linearGradient>
  <linearGradient
     id="j"
     gradientTransform="rotate(-90,22,12)"
     gradientUnits="userSpaceOnUse"
     x1="20.9"
     x2="23.1"
     y1="12"
     y2="12">
    <stop
       offset="0"
       stop-color="#0c85dc"
       id="stop17" />
    <stop
       offset="1"
       stop-color="#43aaf5"
       id="stop19" />
  </linearGradient>
  <linearGradient
     id="a">
    <stop
       offset="0"
       stop-color="#0f1419"
       id="stop22" />
    <stop
       offset="1"
       stop-color="#22282e"
       id="stop24" />
  </linearGradient>
  <radialGradient
     id="k"
     cx="2"
     cy="20.834999"
     gradientTransform="matrix(1.998,0,2e-5,11.988,-1.996,-223.769)"
     gradientUnits="userSpaceOnUse"
     r="1.001"
     xlink:href="#a" />
  <radialGradient
     id="n"
     cx="3.0009999"
     cy="19.834"
     gradientTransform="matrix(-1.998,0,0,11.988,35.996,-211.768)"
     gradientUnits="userSpaceOnUse"
     r="1.001"
     xlink:href="#a" />
  <linearGradient
     id="b">
    <stop
       offset="0"
       stop-color="#6f7881"
       id="stop29" />
    <stop
       offset="1"
       stop-color="#b0b4b8"
       id="stop31" />
  </linearGradient>
  <linearGradient
     id="c">
    <stop
       offset="0"
       stop-color="#171e25"
       id="stop34" />
    <stop
       offset="1"
       stop-color="#333c45"
       id="stop36" />
  </linearGradient>
  <linearGradient
     id="d"
     gradientUnits="userSpaceOnUse"
     x1="16"
     x2="16"
     y1="26"
     y2="6">
    <stop
       offset="0"
       stop-color="#535a61"
       id="stop39" />
    <stop
       offset=".25"
       stop-color="#6f7881"
       id="stop41" />
    <stop
       offset="1"
       stop-color="#adb6bb"
       id="stop43" />
  </linearGradient>
  <linearGradient
     id="l"
     gradientUnits="userSpaceOnUse"
     x1="19"
     x2="19"
     xlink:href="#b"
     y1="22"
     y2="16" />
  <linearGradient
     id="m"
     gradientUnits="userSpaceOnUse"
     x1="19"
     x2="19"
     xlink:href="#c"
     y1="21"
     y2="17" />
  <linearGradient
     id="f"
     gradientUnits="userSpaceOnUse"
     x1="8"
     x2="8"
     xlink:href="#c"
     y1="15"
     y2="9" />
  <linearGradient
     id="e"
     gradientUnits="userSpaceOnUse"
     x1="6"
     x2="6"
     xlink:href="#b"
     y1="15"
     y2="9" />
  <g
     id="g997"
     transform="matrix(7.099682,0,0,7.099682,-10.369915,-38.684536)">
    <path
       d="M 7,6 C 4.239,6 2,9.358 2,13.5 V 14 l 1,1 V 25 L 2.979,25.482 A 2.5,2.5 0 0 0 6.268,25.268 L 10.535,21 h 10.93 l 4.267,4.268 a 2.5,2.5 0 0 0 3.29,0.212 L 29,25 V 15 l 1,-1 V 13.5 C 30,9.358 27.761,6 25,6 Z"
       fill="url(#d)"
       id="path50"
       style="fill:url(#d)" />
    <path
       d="m 28,12 a 4,4 0 0 1 -4,4 4,4 0 0 1 -4,-4 4,4 0 0 1 4,-4 4,4 0 0 1 4,4 z m -16,0 a 4,4 0 0 1 -4,4 4,4 0 0 1 -4,-4 4,4 0 0 1 4,-4 4,4 0 0 1 4,4 z"
       fill="#6f7881"
       id="path52" />
    <circle
       cx="8"
       cy="12"
       fill="url(#e)"
       r="3"
       id="circle54"
       style="fill:url(#e)" />
    <path
       d="M 8,9 A 3,3 0 0 0 7,9.174 V 11 H 5.176 A 3,3 0 0 0 5,12 3,3 0 0 0 5.174,13 H 7 v 1.824 A 3,3 0 0 0 8,15 3,3 0 0 0 9,14.826 V 13 h 1.824 A 3,3 0 0 0 11,12 3,3 0 0 0 10.826,11 H 9 V 9.176 A 3,3 0 0 0 8,9 Z"
       fill="url(#f)"
       id="path56"
       style="fill:url(#f)" />
    <path
       d="M 24,8.9 A 1.1,1.1 0 0 1 25.1,10 1.1,1.1 0 0 1 24,11.1 1.1,1.1 0 0 1 22.9,10 1.1,1.1 0 0 1 24,8.9 Z"
       fill="url(#g)"
       id="path58"
       style="fill:url(#g)" />
    <path
       d="M 26,10.9 A 1.1,1.1 0 0 1 27.1,12 1.1,1.1 0 0 1 26,13.1 1.1,1.1 0 0 1 24.9,12 1.1,1.1 0 0 1 26,10.9 Z"
       fill="url(#h)"
       id="path60"
       style="fill:url(#h)" />
    <path
       d="M 24,12.9 A 1.1,1.1 0 0 1 25.1,14 1.1,1.1 0 0 1 24,15.1 1.1,1.1 0 0 1 22.9,14 1.1,1.1 0 0 1 24,12.9 Z"
       fill="url(#i)"
       id="path62"
       style="fill:url(#i)" />
    <path
       d="M 22,10.9 A 1.1,1.1 0 0 1 23.1,12 1.1,1.1 0 0 1 22,13.1 1.1,1.1 0 0 1 20.9,12 1.1,1.1 0 0 1 22,10.9 Z"
       fill="url(#j)"
       id="path64"
       style="fill:url(#j)" />
    <path
       d="M 10.535,20 6.268,24.268 A 2.5,2.5 0 0 1 3,24.496 V 25 L 2.979,25.482 A 2.5,2.5 0 0 0 6.268,25.268 L 10.535,21 h 10.93 l 4.267,4.268 a 2.5,2.5 0 0 0 3.29,0.212 L 29,25 v -0.502 a 2.5,2.5 0 0 1 -3.268,-0.23 L 21.465,20 Z"
       fill="#292c2f"
       opacity="0.2"
       id="path66" />
    <path
       d="m 2,14 a 2,4 0 0 1 2,4 v 4 l -0.002,0.002 a 2,4 0 0 1 0,0.004 A 2,4 0 0 1 2.978,25.49 2.5,2.5 0 0 1 1.998,23.506 2.5,2.5 0 0 1 2,23.465 V 18 Z"
       fill="url(#k)"
       id="path68"
       style="fill:url(#k)" />
    <path
       d="m 23,19 a 3,3 0 0 1 -3,3 3,3 0 0 1 -3,-3 3,3 0 0 1 3,-3 3,3 0 0 1 3,3 z m -8,0 a 3,3 0 0 1 -3,3 3,3 0 0 1 -3,-3 3,3 0 0 1 3,-3 3,3 0 0 1 3,3 z"
       fill="url(#l)"
       id="path70"
       style="fill:url(#l)" />
    <path
       d="m 22,19 a 2,2 0 0 1 -2,2 2,2 0 0 1 -2,-2 2,2 0 0 1 2,-2 2,2 0 0 1 2,2 z m -8,0 a 2,2 0 0 1 -2,2 2,2 0 0 1 -2,-2 2,2 0 0 1 2,-2 2,2 0 0 1 2,2 z"
       fill="url(#m)"
       id="path72"
       style="fill:url(#m)" />
    <path
       d="m 30,14 a 2,4 0 0 0 -2,4 v 4 l 0.002,0.002 a 2,4 0 0 0 0,0.004 2,4 0 0 0 1.02,3.484 2.5,2.5 0 0 0 0.98,-1.984 A 2.5,2.5 0 0 0 30,23.465 V 18 Z"
       fill="url(#n)"
       id="path74"
       style="fill:url(#n)" />
  </g>
</svg>
