<?xml version="1.0" encoding="UTF-8" standalone="no"?>
<svg
   xmlns:dc="http://purl.org/dc/elements/1.1/"
   xmlns:cc="http://creativecommons.org/ns#"
   xmlns:rdf="http://www.w3.org/1999/02/22-rdf-syntax-ns#"
   xmlns:svg="http://www.w3.org/2000/svg"
   xmlns="http://www.w3.org/2000/svg"
   xmlns:sodipodi="http://sodipodi.sourceforge.net/DTD/sodipodi-0.dtd"
   xmlns:inkscape="http://www.inkscape.org/namespaces/inkscape"
   sodipodi:docname="Password.svg"
   inkscape:version="1.0 (4035a4fb49, 2020-05-01)"
   id="svg1296"
   version="1.1"
   viewBox="0 0 65 60"
   height="60mm"
   width="65mm">
  <defs
     id="defs1290" />
  <sodipodi:namedview
     inkscape:window-maximized="0"
     inkscape:window-y="46"
     inkscape:window-x="1610"
     inkscape:window-height="2068"
     inkscape:window-width="1918"
     showgrid="false"
     inkscape:document-rotation="0"
     inkscape:current-layer="layer1"
     inkscape:document-units="mm"
     inkscape:cy="289.22907"
     inkscape:cx="140.80639"
     inkscape:zoom="1.979899"
     inkscape:pageshadow="2"
     inkscape:pageopacity="0.0"
     borderopacity="1.0"
     bordercolor="#666666"
     pagecolor="#ffffff"
     id="base" />
  <metadata
     id="metadata1293">
    <rdf:RDF>
      <cc:Work
         rdf:about="">
        <dc:format>image/svg+xml</dc:format>
        <dc:type
           rdf:resource="http://purl.org/dc/dcmitype/StillImage" />
        <dc:title></dc:title>
      </cc:Work>
    </rdf:RDF>
  </metadata>
  <g
     id="layer1"
     inkscape:groupmode="layer"
     inkscape:label="Ebene 1">
    <g
       id="g1982">
      <g
         id="g1969"
         transform="matrix(0.58616109,0,0,0.58616109,-8.3965534,-102.19609)">
        <rect
           ry="4.7247024"
           y="242.61263"
           x="19.577156"
           height="28.448467"
           width="101.59839"
           id="rect1859"
           style="fill:none;stroke:#000000;stroke-width:3;stroke-linejoin:round;stroke-miterlimit:4;stroke-dasharray:none" />
        <g
           transform="translate(7.0957111,-26.836326)"
           id="g1941">
          <path
             id="path1899"
             style="color:#000000;font-style:normal;font-variant:normal;font-weight:normal;font-stretch:normal;font-size:medium;line-height:normal;font-family:sans-serif;font-variant-ligatures:normal;font-variant-position:normal;font-variant-caps:normal;font-variant-numeric:normal;font-variant-alternates:normal;font-variant-east-asian:normal;font-feature-settings:normal;font-variation-settings:normal;text-indent:0;text-align:start;text-decoration:none;text-decoration-line:none;text-decoration-style:solid;text-decoration-color:#000000;letter-spacing:normal;word-spacing:normal;text-transform:none;writing-mode:lr-tb;direction:ltr;text-orientation:mixed;dominant-baseline:auto;baseline-shift:baseline;text-anchor:start;white-space:normal;shape-padding:0;shape-margin:0;inline-size:0;clip-rule:nonzero;display:inline;overflow:visible;visibility:visible;opacity:1;isolation:auto;mix-blend-mode:normal;color-interpolation:sRGB;color-interpolation-filters:linearRGB;solid-color:#000000;solid-opacity:1;vector-effect:none;fill:#000000;fill-opacity:1;fill-rule:nonzero;stroke:none;stroke-width:4.963;stroke-linecap:round;stroke-linejoin:miter;stroke-miterlimit:4;stroke-dasharray:none;stroke-dashoffset:0;stroke-opacity:1;color-rendering:auto;image-rendering:auto;shape-rendering:auto;text-rendering:auto;enable-background:accumulate;stop-color:#000000;stop-opacity:1"
             d="m 23.109331,273.90786 a 2.4814999,2.4814999 0 0 0 -0.05943,5.2e-4 2.4814999,2.4814999 0 0 0 -1.191141,0.33228 2.4814999,2.4814999 0 0 0 -0.908474,3.39049 l 2.055691,3.56051 h -4.112411 a 2.4814999,2.4814999 0 0 0 -2.480468,2.48253 2.4814999,2.4814999 0 0 0 2.480468,2.48047 h 4.113443 l -2.056723,3.56257 a 2.4814999,2.4814999 0 0 0 0.908474,3.38843 2.4814999,2.4814999 0 0 0 3.39049,-0.90796 l 2.055688,-3.5605 2.055688,3.5605 a 2.4814999,2.4814999 0 0 0 3.390492,0.90796 2.4814999,2.4814999 0 0 0 0.907955,-3.38843 l -2.056722,-3.56257 h 4.113442 a 2.4814999,2.4814999 0 0 0 2.480469,-2.48047 2.4814999,2.4814999 0 0 0 -2.480469,-2.48253 h -4.112408 l 2.055688,-3.56051 a 2.4814999,2.4814999 0 0 0 -0.907955,-3.39049 2.4814999,2.4814999 0 0 0 -1.265557,-0.33228 2.4814999,2.4814999 0 0 0 -2.124935,1.24023 l -2.055688,3.56103 -2.055688,-3.56103 a 2.4814999,2.4814999 0 0 0 -2.139921,-1.24075 z" />
          <path
             d="m 47.093298,273.90786 a 2.4814999,2.4814999 0 0 0 -0.05943,5.2e-4 2.4814999,2.4814999 0 0 0 -1.191141,0.33228 2.4814999,2.4814999 0 0 0 -0.908474,3.39049 l 2.055691,3.56051 h -4.112411 a 2.4814999,2.4814999 0 0 0 -2.480468,2.48253 2.4814999,2.4814999 0 0 0 2.480468,2.48047 h 4.113443 l -2.056723,3.56257 a 2.4814999,2.4814999 0 0 0 0.908474,3.38843 2.4814999,2.4814999 0 0 0 3.39049,-0.90796 l 2.055688,-3.5605 2.055688,3.5605 a 2.4814999,2.4814999 0 0 0 3.390492,0.90796 2.4814999,2.4814999 0 0 0 0.907955,-3.38843 l -2.056722,-3.56257 h 4.113442 a 2.4814999,2.4814999 0 0 0 2.480469,-2.48047 2.4814999,2.4814999 0 0 0 -2.480469,-2.48253 h -4.112408 l 2.055688,-3.56051 a 2.4814999,2.4814999 0 0 0 -0.907955,-3.39049 2.4814999,2.4814999 0 0 0 -1.265557,-0.33228 2.4814999,2.4814999 0 0 0 -2.124935,1.24023 l -2.055688,3.56103 -2.055688,-3.56103 a 2.4814999,2.4814999 0 0 0 -2.139921,-1.24075 z"
             style="color:#000000;font-style:normal;font-variant:normal;font-weight:normal;font-stretch:normal;font-size:medium;line-height:normal;font-family:sans-serif;font-variant-ligatures:normal;font-variant-position:normal;font-variant-caps:normal;font-variant-numeric:normal;font-variant-alternates:normal;font-variant-east-asian:normal;font-feature-settings:normal;font-variation-settings:normal;text-indent:0;text-align:start;text-decoration:none;text-decoration-line:none;text-decoration-style:solid;text-decoration-color:#000000;letter-spacing:normal;word-spacing:normal;text-transform:none;writing-mode:lr-tb;direction:ltr;text-orientation:mixed;dominant-baseline:auto;baseline-shift:baseline;text-anchor:start;white-space:normal;shape-padding:0;shape-margin:0;inline-size:0;clip-rule:nonzero;display:inline;overflow:visible;visibility:visible;opacity:1;isolation:auto;mix-blend-mode:normal;color-interpolation:sRGB;color-interpolation-filters:linearRGB;solid-color:#000000;solid-opacity:1;vector-effect:none;fill:#000000;fill-opacity:1;fill-rule:nonzero;stroke:none;stroke-width:4.963;stroke-linecap:round;stroke-linejoin:miter;stroke-miterlimit:4;stroke-dasharray:none;stroke-dashoffset:0;stroke-opacity:1;color-rendering:auto;image-rendering:auto;shape-rendering:auto;text-rendering:auto;enable-background:accumulate;stop-color:#000000;stop-opacity:1"
             id="path1899-7" />
          <path
             d="m 71.077272,273.90786 a 2.4814999,2.4814999 0 0 0 -0.05943,5.2e-4 2.4814999,2.4814999 0 0 0 -1.191141,0.33228 2.4814999,2.4814999 0 0 0 -0.908474,3.39049 l 2.055691,3.56051 h -4.112411 a 2.4814999,2.4814999 0 0 0 -2.480468,2.48253 2.4814999,2.4814999 0 0 0 2.480468,2.48047 h 4.113443 l -2.056723,3.56257 a 2.4814999,2.4814999 0 0 0 0.908474,3.38843 2.4814999,2.4814999 0 0 0 3.39049,-0.90796 l 2.055688,-3.5605 2.055688,3.5605 a 2.4814999,2.4814999 0 0 0 3.390492,0.90796 2.4814999,2.4814999 0 0 0 0.907955,-3.38843 l -2.056722,-3.56257 h 4.113442 a 2.4814999,2.4814999 0 0 0 2.480469,-2.48047 2.4814999,2.4814999 0 0 0 -2.480469,-2.48253 h -4.112408 l 2.055688,-3.56051 a 2.4814999,2.4814999 0 0 0 -0.907955,-3.39049 2.4814999,2.4814999 0 0 0 -1.265557,-0.33228 2.4814999,2.4814999 0 0 0 -2.124935,1.24023 l -2.055688,3.56103 -2.055688,-3.56103 a 2.4814999,2.4814999 0 0 0 -2.139921,-1.24075 z"
             style="color:#000000;font-style:normal;font-variant:normal;font-weight:normal;font-stretch:normal;font-size:medium;line-height:normal;font-family:sans-serif;font-variant-ligatures:normal;font-variant-position:normal;font-variant-caps:normal;font-variant-numeric:normal;font-variant-alternates:normal;font-variant-east-asian:normal;font-feature-settings:normal;font-variation-settings:normal;text-indent:0;text-align:start;text-decoration:none;text-decoration-line:none;text-decoration-style:solid;text-decoration-color:#000000;letter-spacing:normal;word-spacing:normal;text-transform:none;writing-mode:lr-tb;direction:ltr;text-orientation:mixed;dominant-baseline:auto;baseline-shift:baseline;text-anchor:start;white-space:normal;shape-padding:0;shape-margin:0;inline-size:0;clip-rule:nonzero;display:inline;overflow:visible;visibility:visible;opacity:1;isolation:auto;mix-blend-mode:normal;color-interpolation:sRGB;color-interpolation-filters:linearRGB;solid-color:#000000;solid-opacity:1;vector-effect:none;fill:#000000;fill-opacity:1;fill-rule:nonzero;stroke:none;stroke-width:4.963;stroke-linecap:round;stroke-linejoin:miter;stroke-miterlimit:4;stroke-dasharray:none;stroke-dashoffset:0;stroke-opacity:1;color-rendering:auto;image-rendering:auto;shape-rendering:auto;text-rendering:auto;enable-background:accumulate;stop-color:#000000;stop-opacity:1"
             id="path1899-0" />
          <path
             d="m 95.061203,273.90786 a 2.4814999,2.4814999 0 0 0 -0.05943,5.2e-4 2.4814999,2.4814999 0 0 0 -1.191141,0.33228 2.4814999,2.4814999 0 0 0 -0.908475,3.39049 l 2.055692,3.56051 h -4.112411 a 2.4814999,2.4814999 0 0 0 -2.480468,2.48253 2.4814999,2.4814999 0 0 0 2.480468,2.48047 h 4.113443 l -2.056723,3.56257 a 2.4814999,2.4814999 0 0 0 0.908475,3.38843 2.4814999,2.4814999 0 0 0 3.39049,-0.90796 l 2.055687,-3.5605 2.05569,3.5605 a 2.4814999,2.4814999 0 0 0 3.39051,0.90796 2.4814999,2.4814999 0 0 0 0.90796,-3.38843 l -2.05673,-3.56257 h 4.11347 a 2.4814999,2.4814999 0 0 0 2.48047,-2.48047 2.4814999,2.4814999 0 0 0 -2.48047,-2.48253 h -4.11244 l 2.0557,-3.56051 a 2.4814999,2.4814999 0 0 0 -0.90796,-3.39049 2.4814999,2.4814999 0 0 0 -1.26556,-0.33228 2.4814999,2.4814999 0 0 0 -2.12495,1.24023 l -2.05569,3.56103 -2.055687,-3.56103 a 2.4814999,2.4814999 0 0 0 -2.13992,-1.24075 z"
             style="color:#000000;font-style:normal;font-variant:normal;font-weight:normal;font-stretch:normal;font-size:medium;line-height:normal;font-family:sans-serif;font-variant-ligatures:normal;font-variant-position:normal;font-variant-caps:normal;font-variant-numeric:normal;font-variant-alternates:normal;font-variant-east-asian:normal;font-feature-settings:normal;font-variation-settings:normal;text-indent:0;text-align:start;text-decoration:none;text-decoration-line:none;text-decoration-style:solid;text-decoration-color:#000000;letter-spacing:normal;word-spacing:normal;text-transform:none;writing-mode:lr-tb;direction:ltr;text-orientation:mixed;dominant-baseline:auto;baseline-shift:baseline;text-anchor:start;white-space:normal;shape-padding:0;shape-margin:0;inline-size:0;clip-rule:nonzero;display:inline;overflow:visible;visibility:visible;opacity:1;isolation:auto;mix-blend-mode:normal;color-interpolation:sRGB;color-interpolation-filters:linearRGB;solid-color:#000000;solid-opacity:1;vector-effect:none;fill:#000000;fill-opacity:1;fill-rule:nonzero;stroke:none;stroke-width:4.963;stroke-linecap:round;stroke-linejoin:miter;stroke-miterlimit:4;stroke-dasharray:none;stroke-dashoffset:0;stroke-opacity:1;color-rendering:auto;image-rendering:auto;shape-rendering:auto;text-rendering:auto;enable-background:accumulate;stop-color:#000000;stop-opacity:1"
             id="path1899-4" />
        </g>
      </g>
      <g
         id="g1961"
         transform="matrix(0.58616109,0,0,0.58616109,-7.9371412,-101.62599)">
        <path
           sodipodi:nodetypes="ssccsssccss"
           id="path870-7-7-1"
           style="fill:#000000;stroke:none;stroke-width:4.61361;stroke-linejoin:round"
           d="m 69.592586,176.33619 c -7.752895,0 -19.329518,6.28494 -19.329518,14.03782 v 9.34731 h 6.467004 v -9.19326 c 0,-4.64038 7.995169,-7.34389 12.635541,-7.34389 4.640378,0 12.368886,2.71118 12.635547,7.34389 v 9.19326 h 6.920947 v -9.34731 c 0,-7.75288 -11.576635,-14.03782 -19.329521,-14.03782 z" />
        <path
           id="rect868-1"
           style="fill:#000000;fill-opacity:1;stroke:none;stroke-width:4.61361;stroke-linejoin:round"
           d="m 46.949077,199.01337 v 25.14036 c 0,3.7677 3.032817,6.80103 6.800535,6.80103 h 31.683986 c 3.767723,0 6.880304,-3.03417 6.801017,-6.80103 v -25.14036 z"
           sodipodi:nodetypes="csssscc" />
        <path
           sodipodi:nodetypes="ssccccss"
           id="path958-7"
           style="fill:#ffffff;fill-opacity:1;stroke:none;stroke-width:4.61361;stroke-linejoin:round"
           d="m 69.592826,208.35607 c -1.821871,-1.3e-4 -3.298823,1.47681 -3.298706,3.29869 1.22e-4,1.28519 0.74671,2.45328 1.913039,2.9931 l -1.964057,8.45893 h 6.698971 l -1.966916,-8.4575 c 1.167915,-0.5392 1.915821,-1.70816 1.915901,-2.99453 1.17e-4,-1.82169 -1.476546,-3.29856 -3.298232,-3.29869 z" />
      </g>
    </g>
  </g>
</svg>
