<?xml version="1.0" encoding="UTF-8" standalone="no"?>
<svg
   xmlns:dc="http://purl.org/dc/elements/1.1/"
   xmlns:cc="http://creativecommons.org/ns#"
   xmlns:rdf="http://www.w3.org/1999/02/22-rdf-syntax-ns#"
   xmlns:svg="http://www.w3.org/2000/svg"
   xmlns="http://www.w3.org/2000/svg"
   xmlns:sodipodi="http://sodipodi.sourceforge.net/DTD/sodipodi-0.dtd"
   xmlns:inkscape="http://www.inkscape.org/namespaces/inkscape"
   width="33mm"
   height="33mm"
   viewBox="0 0 33 33"
   version="1.1"
   id="svg8"
   sodipodi:docname="QRCode.svg"
   inkscape:version="1.0.1 (3bc2e813f5, 2020-09-07)">
  <defs
     id="defs2" />
  <sodipodi:namedview
     id="base"
     pagecolor="#ffffff"
     bordercolor="#666666"
     borderopacity="1.0"
     inkscape:pageopacity="0.0"
     inkscape:pageshadow="2"
     inkscape:zoom="3.959798"
     inkscape:cx="70.737068"
     inkscape:cy="43.993329"
     inkscape:document-units="mm"
     inkscape:current-layer="layer1"
     inkscape:document-rotation="0"
     showgrid="false"
     inkscape:window-width="1920"
     inkscape:window-height="1141"
     inkscape:window-x="1024"
     inkscape:window-y="25"
     inkscape:window-maximized="1"
     inkscape:snap-page="true" />
  <metadata
     id="metadata5">
    <rdf:RDF>
      <cc:Work
         rdf:about="">
        <dc:format>image/svg+xml</dc:format>
        <dc:type
           rdf:resource="http://purl.org/dc/dcmitype/StillImage" />
        <dc:title></dc:title>
      </cc:Work>
    </rdf:RDF>
  </metadata>
  <g
     inkscape:label="Ebene 1"
     inkscape:groupmode="layer"
     id="layer1">
    <path
       id="rect831"
       style="fill:#ffffff;fill-rule:evenodd;stroke:#ffffff;stroke-width:0.2;stroke-linecap:round;stroke-linejoin:bevel;paint-order:fill markers stroke"
       d="m 3.313225,0 h 26.37355 C 31.522302,0 33,1.4776984 33,3.313225 v 26.37355 C 33,31.522302 31.522302,33 29.686775,33 H 3.313225 C 1.4776984,33 0,31.522302 0,29.686775 V 3.313225 C 0,1.4776984 1.4776984,0 3.313225,0 Z" />
    <path
       d="m 29.803376,30.895442 h -0.794231 c -0.05483,0 -0.09928,-0.04445 -0.09928,-0.09928 v -1.8863 h 0.99279 v 1.8863 c 0,0.05483 -0.04445,0.09928 -0.09928,0.09928 z m -1.985579,0 h -1.78702 c -0.05483,0 -0.09928,-0.04445 -0.09928,-0.09928 v -2.779811 c 0,-0.05483 -0.04445,-0.09928 -0.09928,-0.09928 h -1.78702 c -0.05483,0 -0.09928,-0.04445 -0.09928,-0.09928 v -0.794232 c 0,-0.05483 -0.04445,-0.09928 -0.09928,-0.09928 h -0.794231 c -0.05483,0 -0.09928,0.04445 -0.09928,0.09928 v 0.794232 c 0,0.05483 -0.04445,0.09928 -0.09928,0.09928 h -0.794231 c -0.05483,0 -0.09928,0.04444 -0.09928,0.09928 v 0.893511 h -0.893509 c -0.05483,0 -0.09928,0.04445 -0.09928,0.09928 v 0.794232 c 0,0.05483 -0.04445,0.09928 -0.09928,0.09928 h -1.8863 v -0.89351 c 0,-0.05483 0.04445,-0.09928 0.09928,-0.09928 h 0.794231 c 0.05483,0 0.09928,-0.04445 0.09928,-0.09928 v -0.89351 h 0.893511 c 0.05483,0 0.09928,-0.04445 0.09928,-0.09928 v -0.794232 c 0,-0.05483 0.04445,-0.09928 0.09928,-0.09928 h 0.79423 c 0.05483,0 0.09928,-0.04444 0.09928,-0.09928 v -2.779811 c 0,-0.05483 -0.04445,-0.09928 -0.09928,-0.09928 h -0.79423 c -0.05483,0 -0.09928,0.04445 -0.09928,0.09928 v 1.787021 c 0,0.05483 -0.04445,0.09928 -0.09928,0.09928 h -0.794231 c -0.05483,0 -0.09928,-0.04445 -0.09928,-0.09928 v -3.871879 h 0.893511 c 0.05483,0 0.09928,-0.04445 0.09928,-0.09928 v -0.794231 c 0,-0.05483 0.04445,-0.09928 0.09928,-0.09928 h 0.79423 c 0.05483,0 0.09928,0.04445 0.09928,0.09928 v 0.794231 c 0,0.05483 0.04445,0.09928 0.09928,0.09928 h 0.794231 c 0.05483,0 0.09928,-0.04445 0.09928,-0.09928 v -0.794231 c 0,-0.05483 0.04444,-0.09928 0.09928,-0.09928 h 1.787021 c 0.05483,0 0.09928,0.04445 0.09928,0.09928 v 0.794231 c 0,0.05483 0.04445,0.09928 0.09928,0.09928 h 0.794231 c 0.05483,0 0.09928,-0.04445 0.09928,-0.09928 v -1.8863 h 0.992789 v 4.864669 c 0,0.05483 0.04445,0.09928 0.09928,0.09928 h 1.886299 v 0.99279 h -1.886303 c -0.05483,0 -0.09928,0.04445 -0.09928,0.09928 v 0.794232 c 0,0.05483 0.04445,0.09928 0.09928,0.09928 h 1.78702 c 0.05483,0 0.09928,-0.04444 0.09928,-0.09928 v -0.893509 h 0.89351 c 0.05483,0 0.09928,-0.04445 0.09928,-0.09928 v -0.893511 h 0.89351 c 0.05483,0 0.09928,0.04445 0.09928,0.09928 v 1.787022 c 0,0.05483 -0.04445,0.09928 -0.09928,0.09928 h -0.794231 c -0.05483,0 -0.09928,0.04445 -0.09928,0.09928 v 0.893511 h -0.89351 c -0.05483,0 -0.09928,0.04444 -0.09928,0.09928 v 0.893511 h -1.886299 c -0.05483,0 -0.09928,0.04445 -0.09928,0.09928 v 0.794232 c 0,0.05483 0.04445,0.09928 0.09928,0.09928 h 0.794231 c 0.05483,0 0.09928,0.04445 0.09928,0.09928 v 0.794232 c 0,0.05483 -0.04445,0.09928 -0.09928,0.09928 z m -3.971158,0 h -1.78702 c -0.05483,0 -0.09928,-0.04445 -0.09928,-0.09928 v -1.8863 h 1.8863 c 0.05483,0 0.09928,0.04445 0.09928,0.09928 v 1.787021 c 0,0.05483 -0.04445,0.09928 -0.09928,0.09928 z m -4.963947,0 h -0.794231 c -0.05483,0 -0.09928,-0.04445 -0.09928,-0.09928 v -0.893511 h 0.992789 v 0.893511 c 0,0.05483 -0.04445,0.09928 -0.09928,0.09928 z m -1.985579,0 h -1.78702 c -0.05483,0 -0.09928,-0.04445 -0.09928,-0.09928 V 30.00193 c 0,-0.05483 -0.04444,-0.09928 -0.09928,-0.09928 h -0.893511 v -1.8863 c 0,-0.05483 -0.04445,-0.09928 -0.09928,-0.09928 h -0.794231 c -0.05483,0 -0.09928,0.04444 -0.09928,0.09928 v 1.787022 c 0,0.05483 0.04444,0.09928 0.09928,0.09928 h 0.89351 v 0.893511 c 0,0.05483 -0.04445,0.09928 -0.09928,0.09928 h -1.78702 c -0.05483,0 -0.09928,-0.04445 -0.09928,-0.09928 v -0.794232 c 0,-0.05483 -0.04445,-0.09928 -0.09928,-0.09928 H 11.13893 c -0.05483,0 -0.09928,0.04445 -0.09928,0.09928 v 0.794232 c 0,0.05483 -0.04445,0.09928 -0.09928,0.09928 h -0.794224 c -0.05483,0 -0.09928,-0.04445 -0.09928,-0.09928 v -1.787021 c 0,-0.05483 0.04445,-0.09928 0.09928,-0.09928 h 0.794231 c 0.05483,0 0.09928,-0.04445 0.09928,-0.09928 v -0.89351 h 0.89351 c 0.05483,0 0.09928,-0.04445 0.09928,-0.09928 v -0.893511 h 1.8863 c 0.05483,0 0.09928,-0.04444 0.09928,-0.09928 v -0.794232 c 0,-0.05483 0.04445,-0.09928 0.09928,-0.09928 h 0.794231 c 0.05483,0 0.09928,0.04445 0.09928,0.09928 v 2.77981 c 0,0.05483 0.04445,0.09928 0.09928,0.09928 h 2.77981 c 0.05483,0 0.09928,0.04445 0.09928,0.09928 v 0.89351 h -0.89351 c -0.05483,0 -0.09928,0.04445 -0.09928,0.09928 v 0.794232 c 0,0.05483 -0.04445,0.09928 -0.09928,0.09928 z m -7.942315,0 H 2.2038302 c -0.05483,0 -0.099279,-0.04445 -0.099279,-0.09928 v -6.750968 c 0,-0.05483 0.044449,-0.09928 0.099279,-0.09928 H 8.954798 c 0.05483,0 0.099279,0.04445 0.099279,0.09928 v 6.750968 c 0,0.05483 -0.044446,0.09928 -0.099279,0.09928 z M 8.0612874,29.803374 v -4.76539 c 0,-0.05483 -0.044446,-0.09928 -0.099279,-0.09928 H 3.1966197 c -0.05483,0 -0.099279,0.04445 -0.099279,0.09928 v 4.76539 c 0,0.05483 0.044449,0.09928 0.099279,0.09928 h 4.7653889 c 0.05483,0 0.099279,-0.04444 0.099279,-0.09928 z M 30.796165,28.909863 h -0.89351 v -0.992789 h 0.89351 c 0.05483,0 0.09928,0.04444 0.09928,0.09928 v 0.794232 c 0,0.05483 -0.04445,0.09928 -0.09928,0.09928 z m -23.8269456,0 H 4.1894091 c -0.05483,0 -0.099279,-0.04445 -0.099279,-0.09928 v -2.77981 c 0,-0.05483 0.044449,-0.09928 0.099279,-0.09928 h 2.7798103 c 0.05483,0 0.099279,0.04445 0.099279,0.09928 v 2.77981 c 0,0.05483 -0.044449,0.09928 -0.099279,0.09928 z M 19.875482,27.917074 h -0.794231 c -0.05483,0 -0.09928,-0.04445 -0.09928,-0.09928 v -0.893511 h 0.893511 c 0.05483,0 0.09928,0.04445 0.09928,0.09928 v 0.893511 z m -1.985579,0 h -0.794231 c -0.05483,0 -0.09928,-0.04445 -0.09928,-0.09928 v -1.8863 h 1.8863 c 0.05483,0 0.09928,0.04445 0.09928,0.09928 v 0.89351 h -0.89351 c -0.05483,0 -0.09928,0.04445 -0.09928,0.09928 v 0.794232 c 0,0.05483 -0.04445,0.09928 -0.09928,0.09928 z m -6.949526,0 h -0.794231 c -0.05483,0 -0.09928,-0.04445 -0.09928,-0.09928 v -0.794232 c 0,-0.05483 0.04445,-0.09928 0.09928,-0.09928 h 0.89351 v 0.99279 z m 0.992789,-0.99279 h -0.89351 v -1.985579 h 0.89351 c 0.05483,0 0.09928,0.04445 0.09928,0.09928 v 1.8863 z m 13.998331,-1.092068 v -2.779811 c 0,-0.05483 -0.04445,-0.09928 -0.09928,-0.09928 h -2.77981 c -0.05483,0 -0.09928,0.04444 -0.09928,0.09928 v 2.779811 c 0,0.05483 0.04444,0.09928 0.09928,0.09928 h 2.77981 c 0.05483,0 0.09928,-0.04445 0.09928,-0.09928 z m -9.034384,0.09928 h -0.794231 c -0.05483,0 -0.09928,-0.04445 -0.09928,-0.09928 v -0.794232 c 0,-0.05483 0.04445,-0.09928 0.09928,-0.09928 h 0.794231 c 0.05483,0 0.09928,0.04445 0.09928,0.09928 v 0.893511 z m 12.906263,-0.992791 h -0.893511 v -0.89351 c 0,-0.05483 -0.04445,-0.09928 -0.09928,-0.09928 h -0.794231 c -0.05483,0 -0.09928,-0.04445 -0.09928,-0.09928 v -1.787019 c 0,-0.05483 0.04444,-0.09928 0.09928,-0.09928 h 0.89351 v 0.893511 c 0,0.05483 0.04445,0.09928 0.09928,0.09928 h 1.78702 c 0.05483,0 0.09928,0.04444 0.09928,0.09928 v 0.794232 c 0,0.05483 -0.04445,0.09928 -0.09928,0.09928 h -0.794231 c -0.05483,0 -0.09928,0.04445 -0.09928,0.09928 v 0.89351 z m -4.963947,0 h -0.794231 c -0.05483,0 -0.09928,-0.04444 -0.09928,-0.09928 v -0.794232 c 0,-0.05483 0.04445,-0.09928 0.09928,-0.09928 h 0.794231 c 0.05483,0 0.09928,0.04445 0.09928,0.09928 v 0.794232 c 0,0.05483 -0.04444,0.09928 -0.09928,0.09928 z m -5.956737,0 h -0.794231 c -0.05483,0 -0.09928,-0.04444 -0.09928,-0.09928 v -0.794232 c 0,-0.05483 -0.04445,-0.09928 -0.09928,-0.09928 H 16.10288 c -0.05483,0 -0.09928,-0.04445 -0.09928,-0.09928 v -0.794232 c 0,-0.05483 0.04445,-0.09928 0.09928,-0.09928 h 2.77981 c 0.05483,0 0.09928,0.04444 0.09928,0.09928 v 1.787022 c 0,0.05483 -0.04445,0.09928 -0.09928,0.09928 z m -7.942315,0 h -0.794231 c -0.05483,0 -0.09928,-0.04444 -0.09928,-0.09928 v -2.779809 c 0,-0.05483 0.04445,-0.09928 0.09928,-0.09928 h 0.89351 v 0.893511 c 0,0.05483 0.04444,0.09928 0.09928,0.09928 h 0.794231 c 0.05483,0 0.09928,0.04444 0.09928,0.09928 v 0.794232 c 0,0.05483 -0.04445,0.09928 -0.09928,0.09928 h -0.794231 c -0.05483,0 -0.09928,0.04445 -0.09928,0.09928 v 0.89351 z m 2.978368,-0.992789 h -0.794231 c -0.05483,0 -0.09928,-0.04445 -0.09928,-0.09928 v -0.794232 c 0,-0.05483 0.04444,-0.09928 0.09928,-0.09928 h 0.794231 c 0.05483,0 0.09928,0.04444 0.09928,0.09928 v 0.794232 c 0,0.05483 -0.04445,0.09928 -0.09928,0.09928 z M 8.954798,22.953127 H 8.1605671 c -0.05483,0 -0.09928,-0.04445 -0.09928,-0.09928 v -0.893511 h 0.8935106 c 0.05483,0 0.099279,0.04445 0.099279,0.09928 v 0.794232 c 0,0.05483 -0.044446,0.09928 -0.099279,0.09928 z m -1.9855786,0 H 4.1894091 c -0.05483,0 -0.099279,-0.04445 -0.099279,-0.09928 v -0.794231 c 0,-0.05483 0.044449,-0.09928 0.099279,-0.09928 H 5.97643 c 0.05483,0 0.099279,-0.04445 0.099279,-0.09928 v -0.794231 c 0,-0.05483 -0.044449,-0.09928 -0.099279,-0.09928 H 5.1821985 c -0.05483,0 -0.099279,-0.04445 -0.099279,-0.09928 v -0.794232 c 0,-0.05483 -0.044448,-0.09928 -0.099279,-0.09928 H 3.0973407 v -1.985578 h 0.8935105 c 0.05483,0 0.099279,0.04444 0.099279,0.09928 v 0.794232 c 0,0.05483 0.044449,0.09928 0.099279,0.09928 h 1.8862997 v 0.893511 c 0,0.05483 0.044449,0.09928 0.099279,0.09928 h 7.7437571 c 0.05483,0 0.09928,-0.04444 0.09928,-0.09928 v -1.8863 h 1.8863 c 0.05483,0 0.09928,0.04444 0.09928,0.09928 v 0.794232 c 0,0.05483 0.04445,0.09928 0.09928,0.09928 h 0.794231 c 0.05483,0 0.09928,0.04445 0.09928,0.09928 v 1.787021 c 0,0.05483 0.04445,0.09928 0.09928,0.09928 h 2.77981 c 0.05483,0 0.09928,0.04445 0.09928,0.09928 v 0.89351 h -3.871878 c -0.05483,0 -0.09928,-0.04445 -0.09928,-0.09928 V 20.07404 c 0,-0.05483 -0.04445,-0.09928 -0.09928,-0.09928 h -0.794231 c -0.05483,0 -0.09928,0.04445 -0.09928,0.09928 v 1.787021 c 0,0.05483 -0.04444,0.09928 -0.09928,0.09928 h -0.794231 c -0.05483,0 -0.09928,-0.04445 -0.09928,-0.09928 V 21.06683 c 0,-0.05483 -0.04445,-0.09928 -0.09928,-0.09928 h -0.794231 c -0.05483,0 -0.09928,0.04445 -0.09928,0.09928 v 0.794231 c 0,0.05483 -0.04445,0.09928 -0.09928,0.09928 h -1.8863 v -0.89351 c 0,-0.05483 -0.04445,-0.09928 -0.09928,-0.09928 H 8.1605671 c -0.05483,0 -0.09928,0.04445 -0.09928,0.09928 v 0.89351 H 7.1677773 c -0.05483,0 -0.099279,0.04445 -0.099279,0.09928 v 0.794232 c 0,0.05483 -0.044449,0.09928 -0.099279,0.09928 z m -3.9711576,0 H 2.2038302 c -0.05483,0 -0.099279,-0.04445 -0.099279,-0.09928 v -0.794231 c 0,-0.05483 0.044449,-0.09928 0.099279,-0.09928 h 0.7942316 c 0.05483,0 0.099279,0.04445 0.099279,0.09928 v 0.794232 c 0,0.05483 -0.044449,0.09928 -0.099279,0.09928 z m 27.7981032,-0.99279 h -1.8863 v -1.8863 c 0,-0.05483 0.04445,-0.09928 0.09928,-0.09928 h 0.794231 c 0.05483,0 0.09928,-0.04444 0.09928,-0.09928 v -0.893511 h 0.89351 c 0.05483,0 0.09928,0.04445 0.09928,0.09928 v 2.77981 c 0,0.05483 -0.04445,0.09928 -0.09928,0.09928 z M 2.9980618,20.967548 H 2.2038302 c -0.05483,0 -0.099279,-0.04445 -0.099279,-0.09928 v -0.794232 c 0,-0.05483 0.044449,-0.09928 0.099279,-0.09928 h 0.8935105 v 0.893511 c 0,0.05483 -0.044449,0.09928 -0.099279,0.09928 z m 24.8197352,-0.99279 h -0.893511 v -0.89351 c 0,-0.05483 0.04445,-0.09928 0.09928,-0.09928 h 0.794231 c 0.05483,0 0.09928,0.04445 0.09928,0.09928 v 0.794232 c 0,0.05483 -0.04445,0.09928 -0.09928,0.09928 z m -1.985579,0 h -3.772599 c -0.05483,0 -0.09928,-0.04444 -0.09928,-0.09928 v -2.779811 c 0,-0.05483 0.04445,-0.09928 0.09928,-0.09928 h 0.794231 c 0.05483,0 0.09928,-0.04445 0.09928,-0.09928 v -0.794232 c 0,-0.05483 -0.04445,-0.09928 -0.09928,-0.09928 h -1.78702 c -0.05483,0 -0.09928,-0.04445 -0.09928,-0.09928 v -0.794232 c 0,-0.05483 0.04445,-0.09928 0.09928,-0.09928 h 0.79423 c 0.05483,0 0.09928,-0.04445 0.09928,-0.09928 v -0.893511 h 0.99279 v 0.893511 c 0,0.05483 0.04444,0.09928 0.09928,0.09928 h 0.89351 v 1.8863 c 0,0.05483 0.04445,0.09928 0.09928,0.09928 h 0.794231 c 0.05483,0 0.09928,0.04445 0.09928,0.09928 v 0.794232 c 0,0.05483 -0.04444,0.09928 -0.09928,0.09928 H 24.0452 c -0.05483,0 -0.09928,0.04444 -0.09928,0.09928 v 0.794232 c 0,0.05483 0.04445,0.09928 0.09928,0.09928 h 1.78702 c 0.05483,0 0.09928,0.04445 0.09928,0.09928 v 0.89351 z m 3.971158,-0.992789 h -0.794231 c -0.05483,0 -0.09928,-0.04445 -0.09928,-0.09928 v -1.787021 c 0,-0.05483 -0.04445,-0.09928 -0.09928,-0.09928 h -0.794231 c -0.05483,0 -0.09928,0.04445 -0.09928,0.09928 V 17.8899 c 0,0.05483 -0.04445,0.09928 -0.09928,0.09928 h -1.78702 c -0.05483,0 -0.09928,-0.04445 -0.09928,-0.09928 v -0.794232 c 0,-0.05483 0.04445,-0.09928 0.09928,-0.09928 h 0.794231 c 0.05483,0 0.09928,-0.04445 0.09928,-0.09928 v -0.794232 c 0,-0.05483 0.04445,-0.09928 0.09928,-0.09928 h 3.772599 c 0.05483,0 0.09928,0.04444 0.09928,0.09928 v 0.794232 c 0,0.05483 -0.04445,0.09928 -0.09928,0.09928 h -0.794231 c -0.05483,0 -0.09928,0.04445 -0.09928,0.09928 v 1.8863 z m -9.927894,0 h -1.787021 c -0.05483,0 -0.09928,-0.04445 -0.09928,-0.09928 v -1.787021 c 0,-0.05483 0.04444,-0.09928 0.09928,-0.09928 h 0.794231 c 0.05483,0 0.09928,-0.04445 0.09928,-0.09928 v -0.794232 c 0,-0.05483 0.04445,-0.09928 0.09928,-0.09928 h 0.794231 c 0.05483,0 0.09928,0.04444 0.09928,0.09928 v 2.779811 c 0,0.05483 -0.04444,0.09928 -0.09928,0.09928 z m -6.949526,0 h -0.794231 c -0.05483,0 -0.09928,-0.04445 -0.09928,-0.09928 v -0.89351 h 0.99279 v 0.89351 c 0,0.05483 -0.04445,0.09928 -0.09928,0.09928 z m -1.985579,0 H 6.0757089 V 17.98918 h 0.8935105 c 0.05483,0 0.099279,-0.04445 0.099279,-0.09928 v -2.779811 c 0,-0.05483 0.044448,-0.09928 0.099279,-0.09928 h 0.8935101 v 0.893511 c 0,0.05483 0.044446,0.09928 0.09928,0.09928 h 0.8935097 v 0.89351 c 0,0.05483 -0.044446,0.09928 -0.099279,0.09928 H 8.1605671 c -0.05483,0 -0.09928,0.04445 -0.09928,0.09928 v 0.794232 c 0,0.05483 0.044446,0.09928 0.09928,0.09928 h 2.8790889 v 0.89351 c 0,0.05483 -0.04445,0.09928 -0.09928,0.09928 z m 2.978368,-0.992789 h -0.89351 v -0.893511 c 0,-0.05483 -0.04445,-0.09928 -0.09928,-0.09928 h -0.794231 c -0.05483,0 -0.09928,0.04445 -0.09928,0.09928 v 0.893511 h -0.992788 v -0.893511 c 0,-0.05483 -0.04445,-0.09928 -0.09928,-0.09928 h -0.79423 c -0.05483,0 -0.09928,-0.04445 -0.09928,-0.09928 v -0.89351 h 2.87909 c 0.05483,0 0.09928,-0.04445 0.09928,-0.09928 v -0.794232 c 0,-0.05483 -0.04445,-0.09928 -0.09928,-0.09928 h -0.794231 c -0.05483,0 -0.09928,-0.04445 -0.09928,-0.09928 v -0.794232 c 0,-0.05483 -0.04445,-0.09928 -0.09928,-0.09928 h -0.89351 v -0.893511 c 0,-0.05483 0.04444,-0.09928 0.09928,-0.09928 h 1.787021 c 0.05483,0 0.09928,-0.04445 0.09928,-0.09928 v -2.779801 c 0,-0.05483 -0.04445,-0.09928 -0.09928,-0.09928 h -0.794231 c -0.05483,0 -0.09928,-0.04445 -0.09928,-0.099279 V 7.1677744 c 0,-0.05483 -0.04445,-0.099279 -0.09928,-0.099279 h -0.794231 c -0.05483,0 -0.09928,0.044448 -0.09928,0.099279 v 2.7798108 c 0,0.05483 -0.04445,0.099279 -0.09928,0.099279 H 10.046866 V 6.1749852 c 0,-0.05483 0.04445,-0.099279 0.09928,-0.099279 h 0.794231 c 0.05483,0 0.09928,-0.044448 0.09928,-0.099279 V 5.0829166 h 0.89351 c 0.05483,0 0.09928,0.044449 0.09928,0.099279 v 0.7942315 c 0,0.05483 0.04445,0.099279 0.09928,0.099279 h 0.794231 c 0.05483,0 0.09928,0.044449 0.09928,0.099279 v 2.7798108 c 0,0.05483 0.04444,0.099279 0.09928,0.099279 h 0.89351 v 0.8935106 c 0,0.054829 0.04445,0.099278 0.09928,0.099278 h 0.794231 c 0.05483,0 0.09928,0.04445 0.09928,0.09928 v 0.794233 c 0,0.05483 0.04445,0.09928 0.09928,0.09928 h 0.794231 c 0.05483,0 0.09928,-0.04445 0.09928,-0.09928 V 8.0612851 h 0.992789 v 2.8790899 c 0,0.05483 0.04445,0.09928 0.09928,0.09928 h 0.794231 c 0.05483,0 0.09928,-0.04445 0.09928,-0.09928 v -0.794232 c 0,-0.05483 0.04444,-0.09928 0.09928,-0.09928 h 0.89351 v 1.985579 h -3.871878 c -0.05483,0 -0.09928,0.04445 -0.09928,0.09928 v 0.794232 c 0,0.05483 0.04445,0.09928 0.09928,0.09928 h 0.794231 c 0.05483,0 0.09928,0.04444 0.09928,0.09928 v 0.893511 h -1.886299 c -0.05483,0 -0.09928,0.04445 -0.09928,0.09928 v 3.871879 z m -7.942315,0 H 5.1821985 c -0.05483,0 -0.099279,-0.04445 -0.099279,-0.09928 V 16.996389 H 5.97643 c 0.05483,0 0.099279,0.04445 0.099279,0.09928 v 0.893511 z m -2.9783682,0 H 2.2038302 c -0.05483,0 -0.099279,-0.04445 -0.099279,-0.09928 v -2.779811 c 0,-0.05483 0.044449,-0.09928 0.099279,-0.09928 h 1.787021 c 0.05483,0 0.099279,-0.04445 0.099279,-0.09928 v -0.893507 h 1.9855787 v 0.893511 c 0,0.05483 -0.044449,0.09928 -0.099279,0.09928 H 5.1821985 c -0.05483,0 -0.099279,0.04445 -0.099279,0.09928 v 1.8863 H 4.1894091 c -0.05483,0 -0.099279,-0.04445 -0.099279,-0.09928 v -0.794232 c 0,-0.05483 -0.044449,-0.09928 -0.099279,-0.09928 H 3.1966197 c -0.05483,0 -0.099279,0.04444 -0.099279,0.09928 v 1.886301 z M 16.897113,16.99639 h -1.78702 c -0.05483,0 -0.09928,-0.04445 -0.09928,-0.09928 v -1.787021 c 0,-0.05483 0.04445,-0.09928 0.09928,-0.09928 h 0.89351 v 0.893511 c 0,0.05483 0.04445,0.09928 0.09928,0.09928 h 0.89351 v 0.89351 c 0,0.05483 -0.04445,0.09928 -0.09928,0.09928 z m 0.99279,-0.992789 H 16.996392 V 15.11009 c 0,-0.05483 -0.04445,-0.09928 -0.09928,-0.09928 h -0.89351 v -0.992789 h 2.879089 c 0.05483,0 0.09928,0.04445 0.09928,0.09928 v 0.794232 c 0,0.05483 -0.04445,0.09928 -0.09928,0.09928 H 18.08846 c -0.05483,0 -0.09928,0.04445 -0.09928,0.09928 v 0.794232 c 0,0.05483 -0.04445,0.09928 -0.09928,0.09928 z m -7.9423155,0 H 9.0540768 v -0.99279 h 0.9927892 v 0.99279 z m 20.8485775,-0.99279 h -1.78702 c -0.05483,0 -0.09928,-0.04445 -0.09928,-0.09928 v -0.794232 c 0,-0.05483 -0.04445,-0.09928 -0.09928,-0.09928 h -0.893509 v -0.893511 c 0,-0.05483 -0.04445,-0.09928 -0.09928,-0.09928 h -1.78702 c -0.05483,0 -0.09928,0.04444 -0.09928,0.09928 v 1.787022 c 0,0.05483 -0.04445,0.09928 -0.09928,0.09928 h -1.8863 v -0.992789 h 0.893511 c 0.05483,0 0.09928,-0.04445 0.09928,-0.09928 v -1.8863 h 1.886301 c 0.05483,0 0.09928,-0.04445 0.09928,-0.09928 v -0.89351 h 0.99279 v 0.89351 c 0,0.05483 0.04444,0.09928 0.09928,0.09928 h 1.8863 v 1.8863 c 0,0.05483 0.04444,0.09928 0.09928,0.09928 h 0.794231 c 0.05483,0 0.09928,0.04445 0.09928,0.09928 v 0.794232 c 0,0.05483 -0.04445,0.09928 -0.09928,0.09928 z m -2.978368,0 h -0.794231 c -0.05483,0 -0.09928,-0.04445 -0.09928,-0.09928 v -0.794232 c 0,-0.05483 0.04445,-0.09928 0.09928,-0.09928 h 0.89351 v 0.893511 c 0,0.05483 -0.04445,0.09928 -0.09928,0.09928 z m -16.87742,0 h -0.893511 v -0.992789 h 0.99279 v 0.893511 c 0,0.05483 -0.04445,0.09928 -0.09928,0.09928 z m -1.985579,0 H 8.0612874 v -0.89351 c 0,-0.05483 0.044446,-0.09928 0.09928,-0.09928 h 0.8935097 v 0.992789 z m 14.891841,-0.992789 h -0.89351 v -0.893511 c 0,-0.05483 -0.04445,-0.09928 -0.09928,-0.09928 h -0.794231 c -0.05483,0 -0.09928,0.04444 -0.09928,0.09928 v 0.893511 h -0.893509 c -0.05483,0 -0.09928,-0.04445 -0.09928,-0.09928 V 13.12451 c 0,-0.05483 -0.04445,-0.09928 -0.09928,-0.09928 h -1.78702 c -0.05483,0 -0.09928,-0.04445 -0.09928,-0.09928 v -0.893511 h 2.879089 c 0.05483,0 0.09928,-0.04445 0.09928,-0.09928 v -0.794232 c 0,-0.05483 0.04445,-0.09928 0.09928,-0.09928 h 1.78702 c 0.05483,0 0.09928,-0.04445 0.09928,-0.09928 v -0.794224 c 0,-0.05483 0.04445,-0.09928 0.09928,-0.09928 h 2.77981 c 0.05483,0 0.09928,0.04445 0.09928,0.09928 v 0.893511 h -1.886299 c -0.05483,0 -0.09928,0.04444 -0.09928,0.09928 v 0.893511 H 24.0452 c -0.05483,0 -0.09928,0.04445 -0.09928,0.09928 v 1.8863 z m -13.8990515,0 H 9.0540768 v -0.992789 h 0.8935107 c 0.054831,0 0.09928,0.04444 0.09928,0.09928 v 0.893511 z m -2.9783681,0 H 6.0757089 v -1.985579 h 0.8935105 c 0.05483,0 0.099279,0.04445 0.099279,0.09928 v 1.787021 c 0,0.05483 -0.044449,0.09928 -0.099279,0.09928 z m -2.9783682,0 H 3.1966197 c -0.05483,0 -0.099279,-0.04445 -0.099279,-0.09928 V 13.12451 c 0,-0.05483 0.044449,-0.09928 0.099279,-0.09928 h 0.7942315 c 0.05483,0 0.099279,0.04444 0.099279,0.09928 v 0.893511 z M 8.954798,13.025233 H 8.1605671 c -0.05483,0 -0.09928,-0.04445 -0.09928,-0.09928 v -0.794232 c 0,-0.05483 0.044446,-0.09928 0.09928,-0.09928 H 8.954798 c 0.05483,0 0.099279,0.04445 0.099279,0.09928 v 0.893511 z m 21.841367,-0.99279 h -0.89351 v -0.992789 h 0.89351 c 0.05483,0 0.09928,0.04444 0.09928,0.09928 v 0.794232 c 0,0.05483 -0.04445,0.09928 -0.09928,0.09928 z m -18.862999,0 h -1.78702 c -0.05483,0 -0.09928,-0.04445 -0.09928,-0.09928 v -0.89351 h 1.8863 c 0.05483,0 0.09928,0.04444 0.09928,0.09928 v 0.794232 c 0,0.05483 -0.04445,0.09928 -0.09928,0.09928 z m -5.956736,0 H 2.2038302 c -0.05483,0 -0.099279,-0.04445 -0.099279,-0.09928 v -1.78702 c 0,-0.05483 0.044449,-0.09928 0.099279,-0.09928 h 1.787021 c 0.05483,0 0.099279,0.04445 0.099279,0.09928 v 0.794232 c 0,0.05483 0.044449,0.09928 0.099279,0.09928 h 0.7942315 c 0.05483,0 0.099279,-0.04445 0.099279,-0.09928 v -0.794232 c 0,-0.05483 0.044449,-0.09928 0.099279,-0.09928 h 0.7942315 c 0.05483,0 0.099279,0.04445 0.099279,0.09928 v 1.8863 z m 23.826946,-0.992789 h -1.8863 v -0.893511 c 0,-0.05483 0.04444,-0.09928 0.09928,-0.09928 h 1.78702 c 0.05483,0 0.09928,0.04445 0.09928,0.09928 v 0.893511 z m -19.8557885,0 H 8.1605671 c -0.05483,0 -0.09928,-0.04445 -0.09928,-0.09928 v -0.794231 c 0,-0.05483 0.044446,-0.09928 0.09928,-0.09928 h 1.8862989 v 0.99279 z M 22.85385,10.046864 h -0.794231 c -0.05483,0 -0.09928,-0.04445 -0.09928,-0.099279 V 8.0612851 h 0.893511 c 0.05483,0 0.09928,0.044446 0.09928,0.099279 v 1.7870213 c 0,0.05483 -0.04445,0.099279 -0.09928,0.099279 z m -1.985579,0 h -1.8863 V 9.0540746 h 0.893511 c 0.05483,0 0.09928,-0.044446 0.09928,-0.099279 V 8.1605639 c 0,-0.05483 -0.04444,-0.099279 -0.09928,-0.099279 h -0.794231 c -0.05483,0 -0.09928,0.044446 -0.09928,0.099279 v 0.8935107 h -0.89351 c -0.05483,0 -0.09928,-0.044446 -0.09928,-0.099279 V 8.1605639 c 0,-0.05483 -0.04445,-0.099279 -0.09928,-0.099279 H 16.996392 V 7.1677744 c 0,-0.05483 -0.04445,-0.099279 -0.09928,-0.099279 h -0.89351 V 3.1966168 c 0,-0.05483 -0.04445,-0.099279 -0.09928,-0.099279 h -0.794231 c -0.05483,0 -0.09928,-0.044449 -0.09928,-0.099279 V 2.2038273 c 0,-0.05483 0.04445,-0.099279 0.09928,-0.099279 h 2.77981 c 0.05483,0 0.09928,0.044449 0.09928,0.099279 v 0.7942316 c 0,0.05483 0.04444,0.099279 0.09928,0.099279 h 0.794231 c 0.05483,0 0.09928,0.044449 0.09928,0.099279 v 0.7942315 c 0,0.05483 0.04445,0.099279 0.09928,0.099279 h 0.794231 c 0.05483,0 0.09928,0.044449 0.09928,0.099279 v 0.7942313 c 0,0.05483 -0.04444,0.099279 -0.09928,0.099279 h -0.794231 c -0.05483,0 -0.09928,0.044449 -0.09928,0.099279 v 0.7942315 c 0,0.05483 0.04445,0.099279 0.09928,0.099279 h 1.78702 c 0.05483,0 0.09928,0.044449 0.09928,0.099279 v 0.7942315 c 0,0.05483 0.04445,0.099279 0.09928,0.099279 h 0.893509 v 0.9927896 h -0.893509 c -0.05483,0 -0.09928,0.044446 -0.09928,0.099279 v 1.7870213 c 0,0.05483 -0.04445,0.099279 -0.09928,0.099279 z m 9.927894,-0.9927894 h -6.750967 c -0.05483,0 -0.09928,-0.044446 -0.09928,-0.099279 V 2.2038273 c 0,-0.05483 0.04445,-0.099279 0.09928,-0.099279 h 6.750967 c 0.05483,0 0.09928,0.044449 0.09928,0.099279 v 6.7509685 c 0,0.05483 -0.04445,0.099279 -0.09928,0.099279 z m -15.88463,0 h -0.893511 v -3.871879 c 0,-0.05483 0.04445,-0.099279 0.09928,-0.099279 h 0.794231 c 0.05483,0 0.09928,0.044449 0.09928,0.099279 v 1.7870209 c 0,0.05483 0.04445,0.099279 0.09928,0.099279 h 0.89351 v 0.9927896 h -0.89351 c -0.05483,0 -0.09928,0.044446 -0.09928,0.099279 V 8.954796 c 0,0.05483 -0.04444,0.099279 -0.09928,0.099279 z m -5.956737,0 H 2.2038302 c -0.05483,0 -0.099279,-0.044446 -0.099279,-0.099279 V 2.2038273 c 0,-0.05483 0.044449,-0.099279 0.099279,-0.099279 H 8.954798 c 0.05483,0 0.099279,0.044449 0.099279,0.099279 v 6.7509685 c 0,0.05483 -0.044446,0.099279 -0.099279,0.099279 z M 29.902655,7.9620064 V 3.1966168 c 0,-0.05483 -0.04445,-0.099279 -0.09928,-0.099279 h -4.765389 c -0.05483,0 -0.09928,0.044449 -0.09928,0.099279 v 4.7653896 c 0,0.05483 0.04445,0.099279 0.09928,0.099279 h 4.76539 c 0.05483,0 0.09928,-0.044446 0.09928,-0.099279 z m -21.8413676,0 V 3.1966168 c 0,-0.05483 -0.044446,-0.099279 -0.099279,-0.099279 H 3.1966197 c -0.05483,0 -0.099279,0.044449 -0.099279,0.099279 v 4.7653896 c 0,0.05483 0.044449,0.099279 0.099279,0.099279 h 4.7653889 c 0.05483,0 0.099279,-0.044446 0.099279,-0.099279 z M 28.810586,7.0684955 h -2.779809 c -0.05483,0 -0.09928,-0.044449 -0.09928,-0.099279 V 4.1894062 c 0,-0.05483 0.04445,-0.099279 0.09928,-0.099279 h 2.779809 c 0.05483,0 0.09928,0.044449 0.09928,0.099279 v 2.7798103 c 0,0.05483 -0.04445,0.099279 -0.09928,0.099279 z m -5.956736,0 H 21.960339 V 6.174985 c 0,-0.05483 0.04445,-0.099279 0.09928,-0.099279 h 0.794231 c 0.05483,0 0.09928,0.044449 0.09928,0.099279 v 0.7942315 c 0,0.05483 -0.04445,0.099279 -0.09928,0.099279 z m -15.8846306,0 H 4.1894091 c -0.05483,0 -0.099279,-0.044449 -0.099279,-0.099279 V 4.1894062 c 0,-0.05483 0.044449,-0.099279 0.099279,-0.099279 h 2.7798103 c 0.05483,0 0.099279,0.044449 0.099279,0.099279 v 2.7798103 c 0,0.05483 -0.044449,0.099279 -0.099279,0.099279 z M 22.85385,5.0829166 h -1.78702 c -0.05483,0 -0.09928,-0.044449 -0.09928,-0.099279 V 4.1894062 c 0,-0.05483 0.04445,-0.099279 0.09928,-0.099279 h 0.79423 c 0.05483,0 0.09928,-0.044448 0.09928,-0.099279 V 3.0973378 h 0.893511 c 0.05483,0 0.09928,0.044449 0.09928,0.099279 v 1.7870209 c 0,0.05483 -0.04445,0.099279 -0.09928,0.099279 z M 17.989182,4.9836377 V 4.1894062 c 0,-0.05483 -0.04445,-0.099279 -0.09928,-0.099279 h -0.794231 c -0.05483,0 -0.09928,0.044449 -0.09928,0.099279 v 0.7942315 c 0,0.05483 0.04445,0.099279 0.09928,0.099279 h 0.794231 c 0.05483,0 0.09928,-0.044449 0.09928,-0.099279 z m -7.048805,0.099279 h -0.794231 c -0.05483,0 -0.09928,-0.044449 -0.09928,-0.099279 V 3.1966168 c 0,-0.05483 0.04445,-0.099279 0.09928,-0.099279 h 1.78702 c 0.05483,0 0.09928,-0.044449 0.09928,-0.099279 V 2.2038273 c 0,-0.05483 0.04445,-0.099279 0.09928,-0.099279 h 0.794231 c 0.05483,0 0.09928,0.044449 0.09928,0.099279 v 1.787021 c 0,0.05483 -0.04445,0.099279 -0.09928,0.099279 h -1.787021 c -0.05483,0 -0.09928,0.044449 -0.09928,0.099279 V 5.0829166 Z M 21.86106,3.0973378 h -0.79423 c -0.05483,0 -0.09928,-0.044449 -0.09928,-0.099279 V 2.2038273 c 0,-0.05483 0.04445,-0.099279 0.09928,-0.099279 h 0.79423 c 0.05483,0 0.09928,0.044449 0.09928,0.099279 v 0.8935105 z"
       id="path838"
       style="fill:#000000;stroke:none;stroke-width:0.248197" />
  </g>
</svg>
