<?xml version="1.0" encoding="UTF-8" standalone="no"?>
<svg
   xmlns:dc="http://purl.org/dc/elements/1.1/"
   xmlns:cc="http://creativecommons.org/ns#"
   xmlns:rdf="http://www.w3.org/1999/02/22-rdf-syntax-ns#"
   xmlns:svg="http://www.w3.org/2000/svg"
   xmlns="http://www.w3.org/2000/svg"
   xmlns:sodipodi="http://sodipodi.sourceforge.net/DTD/sodipodi-0.dtd"
   xmlns:inkscape="http://www.inkscape.org/namespaces/inkscape"
   width="33mm"
   height="33mm"
   viewBox="0 0 33 33"
   version="1.1"
   id="svg8"
   sodipodi:docname="QRCode-white.svg"
   inkscape:version="1.0.1 (3bc2e813f5, 2020-09-07)">
  <defs
     id="defs2" />
  <sodipodi:namedview
     id="base"
     pagecolor="#ffffff"
     bordercolor="#666666"
     borderopacity="1.0"
     inkscape:pageopacity="0.0"
     inkscape:pageshadow="2"
     inkscape:zoom="3.959798"
     inkscape:cx="70.737068"
     inkscape:cy="43.993329"
     inkscape:document-units="mm"
     inkscape:current-layer="layer1"
     inkscape:document-rotation="0"
     showgrid="false"
     inkscape:window-width="1024"
     inkscape:window-height="1221"
     inkscape:window-x="0"
     inkscape:window-y="25"
     inkscape:window-maximized="1" />
  <metadata
     id="metadata5">
    <rdf:RDF>
      <cc:Work
         rdf:about="">
        <dc:format>image/svg+xml</dc:format>
        <dc:type
           rdf:resource="http://purl.org/dc/dcmitype/StillImage" />
        <dc:title></dc:title>
      </cc:Work>
    </rdf:RDF>
  </metadata>
  <g
     inkscape:label="Ebene 1"
     inkscape:groupmode="layer"
     id="layer1">
    <path
       d="m 30.711338,31.977821 h -0.846665 c -0.05845,0 -0.105834,-0.04738 -0.105834,-0.105833 v -2.010831 h 1.058332 v 2.010831 c 0,0.05845 -0.04738,0.105833 -0.105833,0.105833 z m -2.116664,0 h -1.904997 c -0.05845,0 -0.105834,-0.04738 -0.105834,-0.105833 v -2.96333 c 0,-0.05845 -0.04738,-0.105833 -0.105833,-0.105833 h -1.904997 c -0.05845,0 -0.105834,-0.04738 -0.105834,-0.105833 v -0.846666 c 0,-0.05845 -0.04738,-0.105833 -0.105833,-0.105833 h -0.846665 c -0.05845,0 -0.105834,0.04738 -0.105834,0.105833 v 0.846666 c 0,0.05845 -0.04738,0.105833 -0.105833,0.105833 h -0.846665 c -0.05845,0 -0.105834,0.04738 -0.105834,0.105833 v 0.952499 h -0.952498 c -0.05845,0 -0.105834,0.04738 -0.105834,0.105833 v 0.846666 c 0,0.05845 -0.04738,0.105833 -0.105833,0.105833 H 19.175519 V 29.96699 c 0,-0.05845 0.04738,-0.105833 0.105834,-0.105833 h 0.846665 c 0.05845,0 0.105833,-0.04738 0.105833,-0.105833 v -0.952499 h 0.952499 c 0.05845,0 0.105833,-0.04738 0.105833,-0.105833 v -0.846666 c 0,-0.05845 0.04738,-0.105833 0.105834,-0.105833 h 0.846665 c 0.05845,0 0.105833,-0.04738 0.105833,-0.105833 v -2.96333 c 0,-0.05845 -0.04738,-0.105833 -0.105833,-0.105833 h -0.846665 c -0.05845,0 -0.105834,0.04738 -0.105834,0.105833 v 1.904998 c 0,0.05845 -0.04738,0.105833 -0.105833,0.105833 h -0.846665 c -0.05845,0 -0.105834,-0.04738 -0.105834,-0.105833 v -4.127495 h 0.952499 c 0.05845,0 0.105833,-0.04738 0.105833,-0.105833 v -0.846666 c 0,-0.05845 0.04738,-0.105833 0.105834,-0.105833 h 0.846665 c 0.05845,0 0.105833,0.04738 0.105833,0.105833 V 22.347 c 0,0.05845 0.04738,0.105833 0.105834,0.105833 h 0.846665 c 0.05845,0 0.105833,-0.04738 0.105833,-0.105833 v -0.846666 c 0,-0.05845 0.04738,-0.105833 0.105834,-0.105833 h 1.904997 c 0.05845,0 0.105833,0.04738 0.105833,0.105833 V 22.347 c 0,0.05845 0.04738,0.105833 0.105834,0.105833 h 0.846665 c 0.05845,0 0.105833,-0.04738 0.105833,-0.105833 v -2.010831 h 1.058332 v 5.185827 c 0,0.05845 0.04738,0.105833 0.105834,0.105833 h 2.01083 v 1.058332 h -2.01083 c -0.05845,0 -0.105834,0.04738 -0.105834,0.105833 v 0.846666 c 0,0.05845 0.04738,0.105833 0.105834,0.105833 h 1.904997 c 0.05845,0 0.105833,-0.04738 0.105833,-0.105833 v -0.952499 h 0.952499 c 0.05845,0 0.105833,-0.04738 0.105833,-0.105833 v -0.952499 h 0.952499 c 0.05845,0 0.105833,0.04738 0.105833,0.105833 v 1.904998 c 0,0.05845 -0.04738,0.105833 -0.105833,0.105833 h -0.846665 c -0.05845,0 -0.105834,0.04738 -0.105834,0.105833 v 0.952499 h -0.952498 c -0.05845,0 -0.105834,0.04738 -0.105834,0.105833 v 0.952499 h -2.01083 c -0.05845,0 -0.105834,0.04738 -0.105834,0.105833 v 0.846666 c 0,0.05845 0.04738,0.105833 0.105834,0.105833 h 0.846665 c 0.05845,0 0.105833,0.04738 0.105833,0.105833 v 0.846666 c 0,0.05845 -0.04738,0.105833 -0.105833,0.105833 z m -4.233328,0 h -1.904997 c -0.05845,0 -0.105834,-0.04738 -0.105834,-0.105833 v -2.010831 h 2.010831 c 0.05845,0 0.105833,0.04738 0.105833,0.105833 v 1.904998 c 0,0.05845 -0.04738,0.105833 -0.105833,0.105833 z m -5.29166,0 h -0.846665 c -0.05845,0 -0.105834,-0.04738 -0.105834,-0.105833 v -0.952499 h 1.058332 v 0.952499 c 0,0.05845 -0.04738,0.105833 -0.105833,0.105833 z m -2.116664,0 h -1.904997 c -0.05845,0 -0.105834,-0.04738 -0.105834,-0.105833 v -0.846666 c 0,-0.05845 -0.04738,-0.105833 -0.105833,-0.105833 h -0.952499 v -2.010831 c 0,-0.05845 -0.04738,-0.105833 -0.105833,-0.105833 h -0.846665 c -0.05845,0 -0.105834,0.04738 -0.105834,0.105833 v 1.904998 c 0,0.05845 0.04738,0.105833 0.105834,0.105833 h 0.952498 v 0.952499 c 0,0.05845 -0.04738,0.105833 -0.105833,0.105833 h -1.904997 c -0.05845,0 -0.105834,-0.04738 -0.105834,-0.105833 v -0.846666 c 0,-0.05845 -0.04738,-0.105833 -0.105833,-0.105833 h -0.846665 c -0.05845,0 -0.105834,0.04738 -0.105834,0.105833 v 0.846666 c 0,0.05845 -0.04738,0.105833 -0.105833,0.105833 H 9.756365 c -0.05845,0 -0.105834,-0.04738 -0.105834,-0.105833 V 29.96699 c 0,-0.05845 0.04738,-0.105833 0.105834,-0.105833 h 0.846665 c 0.05845,0 0.105833,-0.04738 0.105833,-0.105833 v -0.952499 h 0.952499 c 0.05845,0 0.105833,-0.04738 0.105833,-0.105833 v -0.952499 h 2.010831 c 0.05845,0 0.105833,-0.04738 0.105833,-0.105833 v -0.846666 c 0,-0.05845 0.04738,-0.105833 0.105834,-0.105833 h 0.846665 c 0.05845,0 0.105833,0.04738 0.105833,0.105833 v 2.96333 c 0,0.05845 0.04738,0.105833 0.105834,0.105833 h 2.963329 c 0.05845,0 0.105833,0.04738 0.105833,0.105833 v 0.952499 h -0.952498 c -0.05845,0 -0.105834,0.04738 -0.105834,0.105833 v 0.846666 c 0,0.05845 -0.04738,0.105833 -0.105833,0.105833 z m -8.466656,0 H 1.2897086 c -0.05845,0 -0.1058332,-0.04738 -0.1058332,-0.105833 V 24.67533 c 0,-0.05845 0.047383,-0.105833 0.1058332,-0.105833 H 8.486366 c 0.05845,0 0.105833,0.04738 0.105833,0.105833 v 7.196658 c 0,0.05845 -0.04738,0.105833 -0.105833,0.105833 z M 7.533867,30.813656 v -5.079994 c 0,-0.05845 -0.04738,-0.105833 -0.105833,-0.105833 H 2.3480406 c -0.05845,0 -0.1058332,0.04738 -0.1058332,0.105833 v 5.079994 c 0,0.05845 0.047383,0.105833 0.1058332,0.105833 H 7.428034 c 0.05845,0 0.105833,-0.04738 0.105833,-0.105833 z M 31.76967,29.861157 h -0.952499 v -1.058332 h 0.952499 c 0.05845,0 0.105833,0.04738 0.105833,0.105833 v 0.846666 c 0,0.05845 -0.04738,0.105833 -0.105833,0.105833 z m -25.3999678,0 H 3.4063726 c -0.05845,0 -0.1058332,-0.04738 -0.1058332,-0.105833 v -2.96333 c 0,-0.05845 0.047383,-0.105833 0.1058332,-0.105833 h 2.9633296 c 0.05845,0 0.1058332,0.04738 0.1058332,0.105833 v 2.96333 c 0,0.05845 -0.047383,0.105833 -0.1058332,0.105833 z M 20.128018,28.802825 h -0.846665 c -0.05845,0 -0.105834,-0.04738 -0.105834,-0.105833 v -0.952499 h 0.952499 c 0.05845,0 0.105833,0.04738 0.105833,0.105833 v 0.952499 z m -2.116664,0 h -0.846665 c -0.05845,0 -0.105834,-0.04738 -0.105834,-0.105833 v -2.010831 h 2.010831 c 0.05845,0 0.105833,0.04738 0.105833,0.105833 v 0.952499 h -0.952498 c -0.05845,0 -0.105834,0.04738 -0.105834,0.105833 v 0.846666 c 0,0.05845 -0.04738,0.105833 -0.105833,0.105833 z m -7.408324,0 H 9.756365 c -0.05845,0 -0.105834,-0.04738 -0.105834,-0.105833 v -0.846666 c 0,-0.05845 0.04738,-0.105833 0.105834,-0.105833 h 0.952498 v 1.058332 z m 1.058332,-1.058332 h -0.952499 v -2.116664 h 0.952499 c 0.05845,0 0.105833,0.04738 0.105833,0.105833 v 2.010831 z m 14.922481,-1.164165 v -2.96333 c 0,-0.05845 -0.04738,-0.105833 -0.105833,-0.105833 h -2.963329 c -0.05845,0 -0.105834,0.04738 -0.105834,0.105833 v 2.96333 c 0,0.05845 0.04738,0.105833 0.105834,0.105833 h 2.963329 c 0.05845,0 0.105833,-0.04738 0.105833,-0.105833 z m -9.630821,0.105833 h -0.846665 c -0.05845,0 -0.105834,-0.04738 -0.105834,-0.105833 v -0.846666 c 0,-0.05845 0.04738,-0.105833 0.105834,-0.105833 h 0.846665 c 0.05845,0 0.105833,0.04738 0.105833,0.105833 v 0.952499 z M 30.711338,25.627829 H 29.758839 V 24.67533 c 0,-0.05845 -0.04738,-0.105833 -0.105833,-0.105833 h -0.846665 c -0.05845,0 -0.105834,-0.04738 -0.105834,-0.105833 v -1.904998 c 0,-0.05845 0.04738,-0.105833 0.105834,-0.105833 h 0.952498 v 0.952499 c 0,0.05845 0.04738,0.105833 0.105834,0.105833 h 1.904997 c 0.05845,0 0.105833,0.04738 0.105833,0.105833 v 0.846666 c 0,0.05845 -0.04738,0.105833 -0.105833,0.105833 h -0.846665 c -0.05845,0 -0.105834,0.04738 -0.105834,0.105833 v 0.952499 z m -5.29166,0 h -0.846665 c -0.05845,0 -0.105834,-0.04738 -0.105834,-0.105833 V 24.67533 c 0,-0.05845 0.04738,-0.105833 0.105834,-0.105833 h 0.846665 c 0.05845,0 0.105833,0.04738 0.105833,0.105833 v 0.846666 c 0,0.05845 -0.04738,0.105833 -0.105833,0.105833 z m -6.349992,0 h -0.846665 c -0.05845,0 -0.105834,-0.04738 -0.105834,-0.105833 V 24.67533 c 0,-0.05845 -0.04738,-0.105833 -0.105833,-0.105833 h -1.904997 c -0.05845,0 -0.105834,-0.04738 -0.105834,-0.105833 v -0.846666 c 0,-0.05845 0.04738,-0.105833 0.105834,-0.105833 h 2.963329 c 0.05845,0 0.105833,0.04738 0.105833,0.105833 v 1.904998 c 0,0.05845 -0.04738,0.105833 -0.105833,0.105833 z m -8.466656,0 H 9.756365 c -0.05845,0 -0.105834,-0.04738 -0.105834,-0.105833 v -2.96333 c 0,-0.05845 0.04738,-0.105833 0.105834,-0.105833 h 0.952498 v 0.952499 c 0,0.05845 0.04738,0.105833 0.105834,0.105833 h 0.846665 c 0.05845,0 0.105833,0.04738 0.105833,0.105833 v 0.846666 c 0,0.05845 -0.04738,0.105833 -0.105833,0.105833 h -0.846665 c -0.05845,0 -0.105834,0.04738 -0.105834,0.105833 v 0.952499 z m 3.174996,-1.058332 h -0.846665 c -0.05845,0 -0.105834,-0.04738 -0.105834,-0.105833 v -0.846666 c 0,-0.05845 0.04738,-0.105833 0.105834,-0.105833 h 0.846665 c 0.05845,0 0.105833,0.04738 0.105833,0.105833 v 0.846666 c 0,0.05845 -0.04738,0.105833 -0.105833,0.105833 z M 8.486366,23.511165 H 7.639701 c -0.05845,0 -0.105834,-0.04738 -0.105834,-0.105833 v -0.952499 h 0.952499 c 0.05845,0 0.105833,0.04738 0.105833,0.105833 v 0.846666 c 0,0.05845 -0.04738,0.105833 -0.105833,0.105833 z m -2.1166638,0 H 3.4063726 c -0.05845,0 -0.1058332,-0.04738 -0.1058332,-0.105833 v -0.846666 c 0,-0.05845 0.047383,-0.105833 0.1058332,-0.105833 h 1.9049976 c 0.05845,0 0.1058332,-0.04738 0.1058332,-0.105833 v -0.846666 c 0,-0.05845 -0.047383,-0.105833 -0.1058332,-0.105833 H 4.4647046 c -0.05845,0 -0.1058332,-0.04738 -0.1058332,-0.105833 v -0.846666 c 0,-0.05845 -0.047383,-0.105833 -0.1058332,-0.105833 H 2.2422074 v -2.116664 h 0.9524988 c 0.05845,0 0.1058332,0.04738 0.1058332,0.105833 v 0.846666 c 0,0.05845 0.047383,0.105833 0.1058332,0.105833 h 2.0108308 v 0.952499 c 0,0.05845 0.047383,0.105833 0.1058332,0.105833 h 8.2549894 c 0.05845,0 0.105833,-0.04738 0.105833,-0.105833 v -2.010831 h 2.010831 c 0.05845,0 0.105833,0.04738 0.105833,0.105833 v 0.846666 c 0,0.05845 0.04738,0.105833 0.105834,0.105833 h 0.846665 c 0.05845,0 0.105833,0.04738 0.105833,0.105833 v 1.904998 c 0,0.05845 0.04738,0.105833 0.105834,0.105833 h 2.963329 c 0.05845,0 0.105833,0.04738 0.105833,0.105833 v 0.952499 h -4.127494 c -0.05845,0 -0.105834,-0.04738 -0.105834,-0.105833 v -1.904998 c 0,-0.05845 -0.04738,-0.105833 -0.105833,-0.105833 h -0.846665 c -0.05845,0 -0.105834,0.04738 -0.105834,0.105833 V 22.347 c 0,0.05845 -0.04738,0.105833 -0.105833,0.105833 h -0.846665 c -0.05845,0 -0.105834,-0.04738 -0.105834,-0.105833 v -0.846666 c 0,-0.05845 -0.04738,-0.105833 -0.105833,-0.105833 h -0.846665 c -0.05845,0 -0.105834,0.04738 -0.105834,0.105833 V 22.347 c 0,0.05845 -0.04738,0.105833 -0.105833,0.105833 h -2.010831 v -0.952499 c 0,-0.05845 -0.04738,-0.105833 -0.105833,-0.105833 H 7.639701 c -0.05845,0 -0.105834,0.04738 -0.105834,0.105833 v 0.952499 H 6.5813686 c -0.05845,0 -0.1058332,0.04738 -0.1058332,0.105833 v 0.846666 c 0,0.05845 -0.047383,0.105833 -0.1058332,0.105833 z m -4.233328,0 H 1.2897086 c -0.05845,0 -0.1058332,-0.04738 -0.1058332,-0.105833 v -0.846666 c 0,-0.05845 0.047383,-0.105833 0.1058332,-0.105833 h 0.8466656 c 0.05845,0 0.1058332,0.04738 0.1058332,0.105833 v 0.846666 c 0,0.05845 -0.047383,0.105833 -0.1058332,0.105833 z M 31.76967,22.452833 h -2.010831 v -2.010831 c 0,-0.05845 0.04738,-0.105833 0.105834,-0.105833 h 0.846665 c 0.05845,0 0.105833,-0.04738 0.105833,-0.105833 v -0.952499 h 0.952499 c 0.05845,0 0.105833,0.04738 0.105833,0.105833 V 22.347 c 0,0.05845 -0.04738,0.105833 -0.105833,0.105833 z M 2.1363742,21.394501 H 1.2897086 c -0.05845,0 -0.1058332,-0.04738 -0.1058332,-0.105833 v -0.846666 c 0,-0.05845 0.047383,-0.105833 0.1058332,-0.105833 h 0.9524988 v 0.952499 c 0,0.05845 -0.047383,0.105833 -0.1058332,0.105833 z M 28.594674,20.336169 H 27.642175 V 19.38367 c 0,-0.05845 0.04738,-0.105833 0.105834,-0.105833 h 0.846665 c 0.05845,0 0.105833,0.04738 0.105833,0.105833 v 0.846666 c 0,0.05845 -0.04738,0.105833 -0.105833,0.105833 z m -2.116664,0 h -4.021661 c -0.05845,0 -0.105834,-0.04738 -0.105834,-0.105833 v -2.96333 c 0,-0.05845 0.04738,-0.105833 0.105834,-0.105833 h 0.846665 c 0.05845,0 0.105833,-0.04738 0.105833,-0.105833 v -0.846666 c 0,-0.05845 -0.04738,-0.105833 -0.105833,-0.105833 h -1.904997 c -0.05845,0 -0.105834,-0.04738 -0.105834,-0.105833 v -0.846666 c 0,-0.05845 0.04738,-0.105833 0.105834,-0.105833 h 0.846665 c 0.05845,0 0.105833,-0.04738 0.105833,-0.105833 v -0.952499 h 1.058332 v 0.952499 c 0,0.05845 0.04738,0.105833 0.105834,0.105833 h 0.952498 v 2.010831 c 0,0.05845 0.04738,0.105833 0.105834,0.105833 h 0.846665 c 0.05845,0 0.105833,0.04738 0.105833,0.105833 v 0.846666 c 0,0.05845 -0.04738,0.105833 -0.105833,0.105833 h -0.846665 c -0.05845,0 -0.105834,0.04738 -0.105834,0.105833 v 0.846666 c 0,0.05845 0.04738,0.105833 0.105834,0.105833 h 1.904997 c 0.05845,0 0.105833,0.04738 0.105833,0.105833 v 0.952499 z m 4.233328,-1.058332 h -0.846665 c -0.05845,0 -0.105834,-0.04738 -0.105834,-0.105833 v -1.904998 c 0,-0.05845 -0.04738,-0.105833 -0.105833,-0.105833 h -0.846665 c -0.05845,0 -0.105834,0.04738 -0.105834,0.105833 v 0.846666 c 0,0.05845 -0.04738,0.105833 -0.105833,0.105833 h -1.904997 c -0.05845,0 -0.105834,-0.04738 -0.105834,-0.105833 v -0.846666 c 0,-0.05845 0.04738,-0.105833 0.105834,-0.105833 h 0.846665 c 0.05845,0 0.105833,-0.04738 0.105833,-0.105833 v -0.846666 c 0,-0.05845 0.04738,-0.105833 0.105834,-0.105833 h 4.021661 c 0.05845,0 0.105833,0.04738 0.105833,0.105833 v 0.846666 c 0,0.05845 -0.04738,0.105833 -0.105833,0.105833 h -0.846665 c -0.05845,0 -0.105834,0.04738 -0.105834,0.105833 v 2.010831 z m -10.58332,0 h -1.904997 c -0.05845,0 -0.105834,-0.04738 -0.105834,-0.105833 v -1.904998 c 0,-0.05845 0.04738,-0.105833 0.105834,-0.105833 h 0.846665 c 0.05845,0 0.105833,-0.04738 0.105833,-0.105833 v -0.846666 c 0,-0.05845 0.04738,-0.105833 0.105834,-0.105833 h 0.846665 c 0.05845,0 0.105833,0.04738 0.105833,0.105833 v 2.96333 c 0,0.05845 -0.04738,0.105833 -0.105833,0.105833 z m -7.408324,0 h -0.846665 c -0.05845,0 -0.105834,-0.04738 -0.105834,-0.105833 v -0.952499 h 1.058332 v 0.952499 c 0,0.05845 -0.04738,0.105833 -0.105833,0.105833 z m -2.116664,0 H 5.4172034 v -1.058332 h 0.9524988 c 0.05845,0 0.1058332,-0.04738 0.1058332,-0.105833 v -2.96333 c 0,-0.05845 0.047383,-0.105833 0.1058332,-0.105833 H 7.533867 v 0.952499 c 0,0.05845 0.04738,0.105833 0.105834,0.105833 h 0.952498 v 0.952499 c 0,0.05845 -0.04738,0.105833 -0.105833,0.105833 H 7.639701 c -0.05845,0 -0.105834,0.04738 -0.105834,0.105833 v 0.846666 c 0,0.05845 0.04738,0.105833 0.105834,0.105833 h 3.069162 v 0.952499 c 0,0.05845 -0.04738,0.105833 -0.105833,0.105833 z m 3.174996,-1.058332 h -0.952499 v -0.952499 c 0,-0.05845 -0.04738,-0.105833 -0.105833,-0.105833 h -0.846665 c -0.05845,0 -0.105834,0.04738 -0.105834,0.105833 v 0.952499 h -1.058332 v -0.952499 c 0,-0.05845 -0.04738,-0.105833 -0.105833,-0.105833 H 9.756365 c -0.05845,0 -0.105834,-0.04738 -0.105834,-0.105833 v -0.952499 h 3.069163 c 0.05845,0 0.105833,-0.04738 0.105833,-0.105833 v -0.846666 c 0,-0.05845 -0.04738,-0.105833 -0.105833,-0.105833 h -0.846665 c -0.05845,0 -0.105834,-0.04738 -0.105834,-0.105833 V 14.09201 c 0,-0.05845 -0.04738,-0.105833 -0.105833,-0.105833 h -0.952499 v -0.952499 c 0,-0.05845 0.04738,-0.105833 0.105834,-0.105833 h 1.904997 c 0.05845,0 0.105833,-0.04738 0.105833,-0.105833 v -2.96333 c 0,-0.05845 -0.04738,-0.105833 -0.105833,-0.105833 h -0.846665 c -0.05845,0 -0.105834,-0.04738 -0.105834,-0.105833 V 6.6836859 c 0,-0.05845 -0.04738,-0.1058332 -0.105833,-0.1058332 h -0.846665 c -0.05845,0 -0.105834,0.047383 -0.105834,0.1058332 V 9.647016 c 0,0.05845 -0.04738,0.105833 -0.105833,0.105833 H 9.650531 V 5.6253539 c 0,-0.05845 0.04738,-0.1058332 0.105834,-0.1058332 h 0.846665 c 0.05845,0 0.105833,-0.047383 0.105833,-0.1058332 V 4.4611887 h 0.952499 c 0.05845,0 0.105833,0.047383 0.105833,0.1058332 v 0.8466656 c 0,0.05845 0.04738,0.1058332 0.105834,0.1058332 h 0.846665 c 0.05845,0 0.105833,0.047383 0.105833,0.1058332 V 8.588684 c 0,0.05845 0.04738,0.105833 0.105834,0.105833 h 0.952498 v 0.952499 c 0,0.05845 0.04738,0.105833 0.105834,0.105833 h 0.846665 c 0.05845,0 0.105833,0.04738 0.105833,0.105833 v 0.846666 c 0,0.05845 0.04738,0.105833 0.105834,0.105833 h 0.846665 c 0.05845,0 0.105833,-0.04738 0.105833,-0.105833 V 7.636185 h 1.058332 v 3.069163 c 0,0.05845 0.04738,0.105833 0.105834,0.105833 h 0.846665 c 0.05845,0 0.105833,-0.04738 0.105833,-0.105833 V 9.858682 c 0,-0.05845 0.04738,-0.105833 0.105834,-0.105833 h 0.952498 v 2.116664 h -4.127494 c -0.05845,0 -0.105834,0.04738 -0.105834,0.105833 v 0.846666 c 0,0.05845 0.04738,0.105833 0.105834,0.105833 h 0.846665 c 0.05845,0 0.105833,0.04738 0.105833,0.105833 v 0.952499 h -2.01083 c -0.05845,0 -0.105834,0.04738 -0.105834,0.105833 v 4.127495 z m -8.4666558,0 H 4.4647046 c -0.05845,0 -0.1058332,-0.04738 -0.1058332,-0.105833 v -0.952499 h 0.9524988 c 0.05845,0 0.1058332,0.04738 0.1058332,0.105833 v 0.952499 z m -3.174996,0 H 1.2897086 c -0.05845,0 -0.1058332,-0.04738 -0.1058332,-0.105833 v -2.96333 c 0,-0.05845 0.047383,-0.105833 0.1058332,-0.105833 h 1.9049976 c 0.05845,0 0.1058332,-0.04738 0.1058332,-0.105833 v -0.952499 h 2.116664 v 0.952499 c 0,0.05845 -0.047383,0.105833 -0.1058332,0.105833 H 4.4647046 c -0.05845,0 -0.1058332,0.04738 -0.1058332,0.105833 v 2.010831 H 3.4063726 c -0.05845,0 -0.1058332,-0.04738 -0.1058332,-0.105833 v -0.846666 c 0,-0.05845 -0.047383,-0.105833 -0.1058332,-0.105833 H 2.3480406 c -0.05845,0 -0.1058332,0.04738 -0.1058332,0.105833 v 2.010831 z M 16.953022,17.161173 h -1.904997 c -0.05845,0 -0.105834,-0.04738 -0.105834,-0.105833 v -1.904998 c 0,-0.05845 0.04738,-0.105833 0.105834,-0.105833 h 0.952498 v 0.952499 c 0,0.05845 0.04738,0.105833 0.105834,0.105833 h 0.952498 v 0.952499 c 0,0.05845 -0.04738,0.105833 -0.105833,0.105833 z m 1.058332,-1.058332 h -0.952499 v -0.952499 c 0,-0.05845 -0.04738,-0.105833 -0.105833,-0.105833 h -0.952499 v -1.058332 h 3.069163 c 0.05845,0 0.105833,0.04738 0.105833,0.105833 v 0.846666 c 0,0.05845 -0.04738,0.105833 -0.105833,0.105833 h -0.846665 c -0.05845,0 -0.105834,0.04738 -0.105834,0.105833 v 0.846666 c 0,0.05845 -0.04738,0.105833 -0.105833,0.105833 z m -8.466656,0 H 8.592199 v -1.058332 h 1.058332 v 1.058332 z M 31.76967,15.044509 h -1.904997 c -0.05845,0 -0.105834,-0.04738 -0.105834,-0.105833 V 14.09201 c 0,-0.05845 -0.04738,-0.105833 -0.105833,-0.105833 h -0.952499 v -0.952499 c 0,-0.05845 -0.04738,-0.105833 -0.105833,-0.105833 h -1.904997 c -0.05845,0 -0.105834,0.04738 -0.105834,0.105833 v 1.904998 c 0,0.05845 -0.04738,0.105833 -0.105833,0.105833 h -2.010831 v -1.058332 h 0.952499 c 0.05845,0 0.105833,-0.04738 0.105833,-0.105833 v -2.010831 h 2.010831 c 0.05845,0 0.105833,-0.04738 0.105833,-0.105833 v -0.952499 h 1.058332 v 0.952499 c 0,0.05845 0.04738,0.105833 0.105834,0.105833 h 2.01083 v 2.010831 c 0,0.05845 0.04738,0.105833 0.105834,0.105833 h 0.846665 c 0.05845,0 0.105833,0.04738 0.105833,0.105833 v 0.846666 c 0,0.05845 -0.04738,0.105833 -0.105833,0.105833 z m -3.174996,0 h -0.846665 c -0.05845,0 -0.105834,-0.04738 -0.105834,-0.105833 V 14.09201 c 0,-0.05845 0.04738,-0.105833 0.105834,-0.105833 h 0.952498 v 0.952499 c 0,0.05845 -0.04738,0.105833 -0.105833,0.105833 z m -17.991644,0 H 9.650531 v -1.058332 h 1.058332 v 0.952499 c 0,0.05845 -0.04738,0.105833 -0.105833,0.105833 z m -2.116664,0 H 7.533867 V 14.09201 c 0,-0.05845 0.04738,-0.105833 0.105834,-0.105833 h 0.952498 v 1.058332 z m 15.87498,-1.058332 h -0.952499 v -0.952499 c 0,-0.05845 -0.04738,-0.105833 -0.105833,-0.105833 h -0.846665 c -0.05845,0 -0.105834,0.04738 -0.105834,0.105833 v 0.952499 h -0.952498 c -0.05845,0 -0.105834,-0.04738 -0.105834,-0.105833 v -0.846666 c 0,-0.05845 -0.04738,-0.105833 -0.105833,-0.105833 h -1.904997 c -0.05845,0 -0.105834,-0.04738 -0.105834,-0.105833 v -0.952499 h 3.069163 c 0.05845,0 0.105833,-0.04738 0.105833,-0.105833 v -0.846666 c 0,-0.05845 0.04738,-0.105833 0.105834,-0.105833 h 1.904997 c 0.05845,0 0.105833,-0.04738 0.105833,-0.105833 V 9.858682 c 0,-0.05845 0.04738,-0.105833 0.105834,-0.105833 h 2.963329 c 0.05845,0 0.105833,0.04738 0.105833,0.105833 v 0.952499 h -2.01083 c -0.05845,0 -0.105834,0.04738 -0.105834,0.105833 v 0.952499 h -0.952498 c -0.05845,0 -0.105834,0.04738 -0.105834,0.105833 v 2.010831 z m -14.816648,0 H 8.592199 v -1.058332 h 0.952499 c 0.05845,0 0.105833,0.04738 0.105833,0.105833 v 0.952499 z m -3.1749958,0 H 5.4172034 v -2.116664 h 0.9524988 c 0.05845,0 0.1058332,0.04738 0.1058332,0.105833 v 1.904998 c 0,0.05845 -0.047383,0.105833 -0.1058332,0.105833 z m -3.174996,0 H 2.3480406 c -0.05845,0 -0.1058332,-0.04738 -0.1058332,-0.105833 v -0.846666 c 0,-0.05845 0.047383,-0.105833 0.1058332,-0.105833 h 0.8466656 c 0.05845,0 0.1058332,0.04738 0.1058332,0.105833 v 0.952499 z M 8.486366,12.927845 H 7.639701 c -0.05845,0 -0.105834,-0.04738 -0.105834,-0.105833 v -0.846666 c 0,-0.05845 0.04738,-0.105833 0.105834,-0.105833 h 0.846665 c 0.05845,0 0.105833,0.04738 0.105833,0.105833 v 0.952499 z M 31.76967,11.869513 h -0.952499 v -1.058332 h 0.952499 c 0.05845,0 0.105833,0.04738 0.105833,0.105833 v 0.846666 c 0,0.05845 -0.04738,0.105833 -0.105833,0.105833 z m -20.108308,0 H 9.756365 c -0.05845,0 -0.105834,-0.04738 -0.105834,-0.105833 v -0.952499 h 2.010831 c 0.05845,0 0.105833,0.04738 0.105833,0.105833 v 0.846666 c 0,0.05845 -0.04738,0.105833 -0.105833,0.105833 z m -6.3499918,0 H 1.2897086 c -0.05845,0 -0.1058332,-0.04738 -0.1058332,-0.105833 V 9.858682 c 0,-0.05845 0.047383,-0.105833 0.1058332,-0.105833 h 1.9049976 c 0.05845,0 0.1058332,0.04738 0.1058332,0.105833 v 0.846666 c 0,0.05845 0.047383,0.105833 0.1058332,0.105833 h 0.8466656 c 0.05845,0 0.1058332,-0.04738 0.1058332,-0.105833 V 9.858682 c 0,-0.05845 0.047383,-0.105833 0.1058332,-0.105833 h 0.8466656 c 0.05845,0 0.1058332,0.04738 0.1058332,0.105833 v 2.010831 z M 30.711338,10.811181 H 28.700507 V 9.858682 c 0,-0.05845 0.04738,-0.105833 0.105834,-0.105833 h 1.904997 c 0.05845,0 0.105833,0.04738 0.105833,0.105833 v 0.952499 z m -21.16664,0 H 7.639701 c -0.05845,0 -0.105834,-0.04738 -0.105834,-0.105833 V 9.858682 c 0,-0.05845 0.04738,-0.105833 0.105834,-0.105833 h 2.01083 v 1.058332 z M 23.303014,9.752849 h -0.846665 c -0.05845,0 -0.105834,-0.04738 -0.105834,-0.105833 V 7.636185 h 0.952499 c 0.05845,0 0.105833,0.04738 0.105833,0.105833 v 1.904998 c 0,0.05845 -0.04738,0.105833 -0.105833,0.105833 z m -2.116664,0 H 19.175519 V 8.694517 h 0.952499 c 0.05845,0 0.105833,-0.04738 0.105833,-0.105833 V 7.742018 c 0,-0.05845 -0.04738,-0.105833 -0.105833,-0.105833 h -0.846665 c -0.05845,0 -0.105834,0.04738 -0.105834,0.105833 v 0.952499 h -0.952498 c -0.05845,0 -0.105834,-0.04738 -0.105834,-0.105833 V 7.742018 c 0,-0.05845 -0.04738,-0.105833 -0.105833,-0.105833 H 17.058855 V 6.6836859 c 0,-0.05845 -0.04738,-0.1058332 -0.105833,-0.1058332 H 16.000523 V 2.4503579 c 0,-0.05845 -0.04738,-0.1058332 -0.105833,-0.1058332 h -0.846665 c -0.05845,0 -0.105834,-0.047383 -0.105834,-0.1058332 V 1.3920259 c 0,-0.05845 0.04738,-0.1058332 0.105834,-0.1058332 h 2.963329 c 0.05845,0 0.105833,0.047383 0.105833,0.1058332 v 0.8466656 c 0,0.05845 0.04738,0.1058332 0.105834,0.1058332 h 0.846665 c 0.05845,0 0.105833,0.047383 0.105833,0.1058332 v 0.8466656 c 0,0.05845 0.04738,0.1058332 0.105834,0.1058332 h 0.846665 c 0.05845,0 0.105833,0.047383 0.105833,0.1058332 v 0.8466656 c 0,0.05845 -0.04738,0.1058332 -0.105833,0.1058332 h -0.846665 c -0.05845,0 -0.105834,0.047383 -0.105834,0.1058332 v 0.8466656 c 0,0.05845 0.04738,0.1058332 0.105834,0.1058332 h 1.904997 c 0.05845,0 0.105833,0.047383 0.105833,0.1058332 v 0.8466656 c 0,0.05845 0.04738,0.1058332 0.105834,0.1058332 h 0.952498 V 7.636185 h -0.952498 c -0.05845,0 -0.105834,0.04738 -0.105834,0.105833 v 1.904998 c 0,0.05845 -0.04738,0.105833 -0.105833,0.105833 z M 31.76967,8.694517 h -7.196657 c -0.05845,0 -0.105834,-0.04738 -0.105834,-0.105833 V 1.3920259 c 0,-0.05845 0.04738,-0.1058332 0.105834,-0.1058332 h 7.196657 c 0.05845,0 0.105833,0.047383 0.105833,0.1058332 V 8.588684 c 0,0.05845 -0.04738,0.105833 -0.105833,0.105833 z m -16.933312,0 H 13.883859 V 4.5670219 c 0,-0.05845 0.04738,-0.1058332 0.105834,-0.1058332 h 0.846665 c 0.05845,0 0.105833,0.047383 0.105833,0.1058332 v 1.9049976 c 0,0.05845 0.04738,0.1058332 0.105834,0.1058332 h 0.952498 V 7.636185 h -0.952498 c -0.05845,0 -0.105834,0.04738 -0.105834,0.105833 v 0.846666 c 0,0.05845 -0.04738,0.105833 -0.105833,0.105833 z m -6.349992,0 H 1.2897086 c -0.05845,0 -0.1058332,-0.04738 -0.1058332,-0.105833 V 1.3920259 c 0,-0.05845 0.047383,-0.1058332 0.1058332,-0.1058332 H 8.486366 c 0.05845,0 0.105833,0.047383 0.105833,0.1058332 V 8.588684 c 0,0.05845 -0.04738,0.105833 -0.105833,0.105833 z M 30.817171,7.530352 V 2.4503579 c 0,-0.05845 -0.04738,-0.1058332 -0.105833,-0.1058332 h -5.079993 c -0.05845,0 -0.105834,0.047383 -0.105834,0.1058332 V 7.530352 c 0,0.05845 0.04738,0.105833 0.105834,0.105833 h 5.079993 c 0.05845,0 0.105833,-0.04738 0.105833,-0.105833 z m -23.283304,0 V 2.4503579 c 0,-0.05845 -0.04738,-0.1058332 -0.105833,-0.1058332 H 2.3480406 c -0.05845,0 -0.1058332,0.047383 -0.1058332,0.1058332 V 7.530352 c 0,0.05845 0.047383,0.105833 0.1058332,0.105833 H 7.428034 c 0.05845,0 0.105833,-0.04738 0.105833,-0.105833 z M 29.653006,6.5778527 h -2.963329 c -0.05845,0 -0.105834,-0.047383 -0.105834,-0.1058332 V 3.5086899 c 0,-0.05845 0.04738,-0.1058332 0.105834,-0.1058332 h 2.963329 c 0.05845,0 0.105833,0.047383 0.105833,0.1058332 v 2.9633296 c 0,0.05845 -0.04738,0.1058332 -0.105833,0.1058332 z m -6.349992,0 H 22.350515 V 5.6253539 c 0,-0.05845 0.04738,-0.1058332 0.105834,-0.1058332 h 0.846665 c 0.05845,0 0.105833,0.047383 0.105833,0.1058332 v 0.8466656 c 0,0.05845 -0.04738,0.1058332 -0.105833,0.1058332 z m -16.9333118,0 H 3.4063726 c -0.05845,0 -0.1058332,-0.047383 -0.1058332,-0.1058332 V 3.5086899 c 0,-0.05845 0.047383,-0.1058332 0.1058332,-0.1058332 h 2.9633296 c 0.05845,0 0.1058332,0.047383 0.1058332,0.1058332 v 2.9633296 c 0,0.05845 -0.047383,0.1058332 -0.1058332,0.1058332 z M 23.303014,4.4611887 h -1.904997 c -0.05845,0 -0.105834,-0.047383 -0.105834,-0.1058332 V 3.5086899 c 0,-0.05845 0.04738,-0.1058332 0.105834,-0.1058332 h 0.846665 c 0.05845,0 0.105833,-0.047383 0.105833,-0.1058332 V 2.3445247 h 0.952499 c 0.05845,0 0.105833,0.047383 0.105833,0.1058332 v 1.9049976 c 0,0.05845 -0.04738,0.1058332 -0.105833,0.1058332 z M 18.117187,4.3553555 V 3.5086899 c 0,-0.05845 -0.04738,-0.1058332 -0.105833,-0.1058332 h -0.846665 c -0.05845,0 -0.105834,0.047383 -0.105834,0.1058332 v 0.8466656 c 0,0.05845 0.04738,0.1058332 0.105834,0.1058332 h 0.846665 c 0.05845,0 0.105833,-0.047383 0.105833,-0.1058332 z M 10.60303,4.4611887 H 9.756365 c -0.05845,0 -0.105834,-0.047383 -0.105834,-0.1058332 V 2.4503579 c 0,-0.05845 0.04738,-0.1058332 0.105834,-0.1058332 h 1.904997 c 0.05845,0 0.105833,-0.047383 0.105833,-0.1058332 V 1.3920259 c 0,-0.05845 0.04738,-0.1058332 0.105834,-0.1058332 h 0.846665 c 0.05845,0 0.105833,0.047383 0.105833,0.1058332 v 1.9049976 c 0,0.05845 -0.04738,0.1058332 -0.105833,0.1058332 h -1.904997 c -0.05845,0 -0.105834,0.047383 -0.105834,0.1058332 v 0.9524988 z m 11.641652,-2.116664 h -0.846665 c -0.05845,0 -0.105834,-0.047383 -0.105834,-0.1058332 V 1.3920259 c 0,-0.05845 0.04738,-0.1058332 0.105834,-0.1058332 h 0.846665 c 0.05845,0 0.105833,0.047383 0.105833,0.1058332 v 0.9524988 z"
       id="path838"
       style="fill:#ffffff;stroke:none;stroke-width:0.264583" />
  </g>
</svg>
